<?xml version="1.0" standalone="no"?>
<!DOCTYPE svg PUBLIC "-//W3C//DTD SVG 1.1//EN" "http://www.w3.org/Graphics/SVG/1.1/DTD/svg11.dtd">
<svg xmlns="http://www.w3.org/2000/svg">
<metadata>Copyright (C) 2019 by original authors @ fontello.com</metadata>
<defs>
<font id="bless-icons" horiz-adv-x="1000" >
<font-face font-family="bless-icons" font-weight="400" font-stretch="normal" units-per-em="1000" ascent="850" descent="-150" />
<missing-glyph horiz-adv-x="1000" />
<glyph glyph-name="house" unicode="&#xe801;" d="M836 578l0 0c4-4 11-5 15-1 2 2 3 5 3 8v203 0c0 11-9 21-21 21h-145l0 0c-12 0-21-10-21-21 0 0 0 0 0 0v-25l0 0c0-5 2-10 6-14z m152-220l-458 480 0 0c-17 16-43 16-60 0l-458-480 0 0c-16-16-16-43 1-59 8-7 18-11 29-11h62 0c12 0 21-9 21-21v-354l0 0c0-35 28-63 63-63 0 0 0 0 0 0h187 0c23 0 42 19 42 42v167l0 0c0 46 37 83 83 83 46 0 83-37 83-83 0 0 0 0 0 0v-167l0 0c0-23 19-42 42-42h188 0c34 0 62 28 62 63v354l0 0c0 12 9 21 21 21h62l0 0c23 0 42 18 42 42 0 10-4 21-12 28z" horiz-adv-x="1000" />

<glyph glyph-name="gaming-10" unicode="&#xe802;" d="M625 444l0 0c-29 0-52-24-52-52v-84l0 0c0-28 23-52 52-52 29 0 52 24 52 52v84l0 0c0 28-23 52-52 52z m288 64l0 0c-7 5-11 14-9 23l0 0c22 101-42 201-143 223-26 6-54 6-81 0l0 0c-8-2-17 2-22 9l0 0c-55 88-171 114-259 58-23-15-42-34-57-58l0 0c-5-7-14-11-22-9l0 0c-101 23-202-41-224-142-6-27-6-55 0-82l0 0c2-8-2-17-9-22l0 0c-88-55-114-171-58-259 15-23 35-43 58-57l0 0c7-5 11-14 9-23l0 0c-22-101 42-201 143-223 27-6 54-6 81 0l0 0c8 2 17-2 22-9l0 0c56-88 172-113 259-58 23 15 43 35 57 58l0 0c5 7 14 11 22 9l0 0c102-23 202 41 224 143 6 26 6 54 0 81l0 0c-2 8 2 17 9 22l0 0c88 56 114 172 58 259-15 23-35 43-58 57z m-455-314h-166 0c-18 0-32 14-32 31 0 17 14 31 32 31h31 0c11 0 21 10 21 21 0 0 0 0 0 0v118l0 0c0 6-5 11-11 11-2 0-5-1-7-3l-12-13 0 0c-13-11-33-11-44 2-12 12-12 31 0 43l55 55 0 0c10 10 25 16 40 16l0 0c23 0 41-18 41-41v-188l0 0c0-11 10-21 21-21h31 0c18 0 32-14 32-31 0-17-14-31-32-31z m282 114v0c0-63-52-114-115-114-63 0-115 51-115 114v84l0 0c0 63 52 114 115 114 63 0 115-51 115-114 0 0 0 0 0 0z" horiz-adv-x="1000" />

<glyph glyph-name="dating-lips" unicode="&#xe803;" d="M21 413h958l0 0c12 0 21 9 21 20 0 7-3 13-8 17-125 99-257 150-327 150l0 0c-52 5-104-13-142-49-12-10-16-13-23-13-7 0-11 3-23 13l0 0c-38 36-90 54-142 49-70 0-202-51-327-150l0 0c-9-7-11-21-3-30 3-5 10-7 16-7z m977-75l0 0c-3 7-11 12-19 12h-958l0 0c-12 0-21-9-21-21 0-5 2-10 6-14l0 0c134-128 309-204 494-215l0 0c185 11 360 87 495 215l0 0c5 6 7 15 3 23z" horiz-adv-x="1000" />

<glyph glyph-name="camera-1" unicode="&#xe804;" d="M725 414c61-61 61-160 0-221-61-61-160-61-221 0-61 61-61 160 0 221 61 61 160 61 221 0m169 181h-55l0 0c-9 0-17 6-20 14-26 55-53 111-111 111h-208c-45 0-68-33-111-91-16-22-21-34-35-34h-250c-86 0-104-51-104-93v-433l0 0c-4-51 35-96 87-100 7 0 13 0 20 1h787l0 0c51-7 98 29 105 80 1 6 1 13 1 19v433c0 42-18 93-106 93z m-40-292v0c0-132-107-239-239-239-133 0-240 107-240 239 0 132 107 240 240 240l0 0c132 0 239-108 239-240z m-646 136v0c0-29-23-52-52-52-28 0-52 23-52 52 0 28 24 52 52 52l0 0c29 0 52-24 52-52 0 0 0 0 0 0z m-104 198l125 0v0l0 0c12 0 21 9 21 20v11 0c0 34-28 62-62 62h-42l0 0c-35 0-63-28-63-62v-10l0 0c0-11 10-21 21-21z" horiz-adv-x="1000" />

<glyph glyph-name="search-1" unicode="&#xe805;" d="M976-8l-194 194 0 0c131 196 78 461-118 592-196 131-461 79-593-118-131-196-78-461 118-592 144-96 332-96 475 0l194-194 0 0c33-32 85-32 118 0l0 0c32 33 32 85 0 118z m-549 733l0 0c167 0 302-135 302-302 0-167-135-302-302-302-167 0-302 135-302 302l0 0c0 167 135 302 302 302z" horiz-adv-x="1000" />

<glyph glyph-name="notes-heart" unicode="&#xe806;" d="M407 114l0 0c-1 4-5 7-9 7h-304 0c-6 0-11 5-11 10 0 0 0 0 0 0v521 0c0 6 5 11 11 11h62 0c6 0 11-5 11-11 0 0 0 0 0 0v-10l0 0c0-23 18-42 41-42 23 0 42 19 42 42v10l0 0c0 6 5 11 10 11 0 0 0 0 0 0h63l0 0c6 0 10-5 10-11 0 0 0 0 0 0v-10l0 0c0-23 19-42 42-42 23 0 42 19 42 42v10l0 0c0 6 4 11 10 11 0 0 0 0 0 0h63 0c5 0 10-5 10-11v-10l0 0c0-23 19-42 42-42 23 0 41 19 41 42v10l0 0c0 6 5 11 11 11 0 0 0 0 0 0h41 0c6 0 11-5 11-11v-257l0 0c0-5 3-9 8-10l0 0c21-5 41-13 59-23l0 0c5-4 11-2 15 3 1 1 1 3 1 5v293 0c0 46-37 83-83 83h-52l0 0c-6 0-11 4-11 10 0 0 0 0 0 0v52 0c0 23-18 42-41 42-23 0-42-19-42-42v-52 0c0-5-5-10-10-10h-63l0 0c-6 0-10 4-10 10 0 0 0 0 0 0v52l0 0c0 23-19 42-42 42-23 0-42-19-42-42v-52 0c0-5-4-10-10-10h-63l0 0c-5 0-10 4-10 10 0 0 0 0 0 0v52l0 0c0 23-19 42-42 42-23 0-41-19-41-42v-52 0c0-5-5-10-11-10h-73 0c-46 0-83-37-83-83 0 0 0 0 0 0v-542l0 0c0-46 37-83 83-83h349l0 0c5 0 10 4 10 10 0 2-1 5-3 7l0 0c-14 18-24 38-32 59z m578 134l0 0c-24 48-73 80-127 81l0 0c-43 1-83-16-113-47l-8-9 0 0c-4-4-11-4-15 0 0 0 0 0 0 0l-9 9 0 0c-29 31-70 48-112 47l0 0c-81-2-145-70-143-151 2-38 17-73 43-99l213-223 0 0c8-8 21-8 30 0 0 0 0 0 0 0l213 222 0 0c45 45 56 113 28 170z" horiz-adv-x="1000" />

<glyph glyph-name="love-it" unicode="&#xe807;" d="M971 639l0 0c-69 134-235 187-369 118-25-12-47-28-66-47l-36-33-34 32 0 0c-63 62-151 90-237 75l0 0c-86-14-161-68-200-145l0 0c-53-104-32-230 51-312l390-402 0 0c16-17 43-17 59-1 0 0 1 1 1 1l390 402 0 0c83 81 104 208 51 312z" horiz-adv-x="1000" />

<glyph glyph-name="gaming-trophy-100" unicode="&#xe808;" d="M688 15v0c-60 5-96 27-103 112l0 0c-1 11-11 20-23 19 0 0-1 0-1 0l0 0c-40-6-81-6-122 0l0 0c-11 1-22-7-23-18 0-1 0-1 0-1-8-86-44-107-103-112l0 0c-46-5-79-46-74-91 5-42 40-74 82-74h358l0 0c46 0 82 37 82 83 0 42-32 77-74 82z m18 627l0 0c-23 0-42-19-42-42 0 0 0 0 0 0v-42l0 0c0-23 19-41 42-41 23 0 41 18 41 41v42 0c0 23-18 42-41 42z m-209 0l0 0c-23 0-41-19-41-42 0 0 0 0 0 0v-42l0 0c0-23 18-41 41-41 23 0 42 18 42 41v42 0c0 23-19 42-42 42z m420-21h-11l0 0c-11 0-20 9-21 21 0 1 1 1 1 2l0 0c6 48 9 95 10 143l0 0c0 34-27 63-62 63 0 0 0 0-1 0h-666l0 0c-35 0-63-28-63-62 0-1 0-1 0-1l0 0c1-48 4-95 10-143l0 0c2-11-6-21-18-23-1 0-2 0-3 0h-10l0 0c-46 0-83-37-83-83 0 0 0 0 0 0v-105l0 0c0-87 54-165 136-195l0 0c22-8 46 3 54 25 8 21-3 45-25 53 0 0 0 0 0 0l0 0c-49 18-82 65-82 117v84l0 0c0 11 10 21 21 21h15l0 0c9 0 17-7 20-16 56-205 182-318 361-318 179 0 305 113 362 318l0 0c2 9 10 16 20 16h14 0c11 0 21-10 21-21 0 0 0 0 0 0v-84l0 0c0-52-33-99-82-117l0 0c-22-8-33-32-25-53 8-22 32-33 54-25 0 0 0 0 0 0l0 0c82 30 136 108 136 195v105 0c0 46-37 83-83 83z m-565-146h-84 0c-11 0-21 9-21 21 0 0 0 0 0 0l0 0c0 11 10 21 21 21h21v125l-27-20 0 0c-9-7-22-5-29 4 0 0 0 0 0 0l0 0c-6 9-5 22 4 29l27 20 0 0c19 14 45 10 58-8 6-7 9-16 9-25v-125h21 0c11 0 20-10 20-21v0c0-12-9-21-20-21z m229 83v0c0-46-38-83-84-83-46 0-83 37-83 83v42l0 0c0 46 37 83 83 83 46 0 84-37 84-83 0 0 0 0 0 0z m208 0v0c0-46-37-83-83-83-46 0-84 37-84 83v42l0 0c0 46 38 83 84 83 46 0 83-37 83-83 0 0 0 0 0 0z" horiz-adv-x="1000" />

<glyph glyph-name="dating-target" unicode="&#xe809;" d="M526 465l-11-11 0 0c-8-9-22-9-30 0 0 0 0 0 0 0l-11 11 0 0c-37 37-97 37-134 0-37-37-37-97 0-134 0 0 0 0 0 0l143-149 0 0c9-9 24-9 33-1 0 1 1 1 1 1l143 149 0 0c37 37 37 97 0 134-37 37-97 37-134 0z m432-73h-67l0 0c-10 0-19 7-21 17l0 0c-26 160-151 285-311 311l0 0c-10 2-17 11-17 21v67 0c0 23-19 42-42 42-23 0-42-19-42-42v-67l0 0c0-10-7-19-17-21l0 0c-160-26-285-151-311-311l0 0c-2-10-10-17-21-17h-67l0 0c-23 0-42-19-42-42 0-23 19-42 42-42h67l0 0c11 0 19-7 21-17l0 0c26-160 151-285 311-311l0 0c10-2 17-11 17-21v-67l0 0c0-23 19-42 42-42 23 0 42 19 42 42v67l0 0c0 10 7 19 17 21l0 0c160 26 285 151 311 311l0 0c2 10 11 17 21 17h67l0 0c23 0 42 19 42 42 0 23-19 42-42 42z m-187-84l0 0c8 0 15-6 15-14 0-1 0-2-1-3l0 0c-23-114-112-203-226-226l0 0c-8-2-15 3-17 11 0 1 0 2 0 3v0c0 23-19 41-42 41-23 0-42-18-42-41l0 0c0-8-6-15-14-15-1 0-2 1-3 1l0 0c-114 23-203 112-226 226l0 0c-2 8 3 15 11 17 1 0 2 0 3 0l0 0c23 0 41 19 41 42 0 23-18 42-41 42l0 0c-8 0-15 6-15 14 0 1 1 2 1 3l0 0c23 114 112 203 226 226l0 0c8 2 15-3 17-11 0-1 0-2 0-3l0 0c0-23 19-41 42-41 23 0 42 18 42 41l0 0c0 8 6 15 14 15 1 0 2 0 3-1l0 0c114-23 203-112 226-226l0 0c2-8-3-15-11-17-1 0-2 0-3 0l0 0c-23 0-41-19-41-42 0-23 18-42 41-42z" horiz-adv-x="1000" />

<glyph glyph-name="dating-chat-man" unicode="&#xe80a;" d="M698 850c-167 0-302-112-302-250l0 0c1-61 26-119 70-161l0 0c6-6 8-15 5-23l-27-69 0 0c-4-10 1-22 12-27 5-1 10-1 14 0l118 39 0 0c7 3 15 3 23 1l0 0c29-7 58-11 87-11 167 0 302 113 302 251 0 138-135 250-302 250z m127-258l-103-108 0 0c-11-12-29-12-40-1-1 0-1 1-1 1l-104 108 0 0c-28 28-28 75 0 103 29 29 75 29 104 1l0 0c11-12 29-12 41-1 0 0 0 0 0 1l0 0c28 28 75 28 103-1 29-28 29-75 0-103z m-476-508l0 0c-5 3-7 9-5 14 1 2 2 3 3 4l0 0c82 59 100 174 41 256-59 82-174 100-256 41-82-60-100-174-41-256 12-16 25-30 41-41l0 0c5-4 6-10 2-15-1-1-2-2-3-3l0 0c-80-41-131-123-131-213l0 0c0-12 9-21 21-21h437 0c12 0 21 9 21 21l0 0c0 90-50 172-130 213z m-109 66l0 0c-56 0-100 45-100 100 0 11 1 21 5 32l0 0c2 5 8 8 13 6 1 0 2-1 2-1l0 0c50-31 109-43 167-33l0 0c3 0 6-1 9-3l0 0c2-2 3-5 3-8l0 0c-4-52-47-93-99-93z" horiz-adv-x="1000" />

<glyph glyph-name="bin-1" unicode="&#xe80b;" d="M811 538h-621l0 0c-12 0-21-10-21-21 0-1 0-2 0-2l53-589 0 0c4-43 40-76 83-76h390l0 0c43 0 79 33 83 76l53 589 0 0c1 6-1 11-5 16l0 0c-4 4-10 7-15 7z m-384-542v0c0-17-14-31-31-31-17 0-31 14-31 31v375l0 0c0 17 14 31 31 31 17 0 31-14 31-31 0 0 0 0 0 0z m209 0v0c0-17-14-31-32-31-17 0-31 14-31 31v375l0 0c0 17 14 31 31 31 18 0 32-14 32-31 0 0 0 0 0 0z m281 687h-198l0 0c-6 0-11 5-11 11 0 0 0 0 0 0v52 0c0 57-46 104-104 104h-208l0 0c-58 0-104-47-104-104 0 0 0 0 0 0v-52 0c0-6-5-11-11-11 0 0 0 0 0 0h-198l0 0c-23 0-41-18-41-41 0-23 18-42 41-42h834l0 0c23 0 41 19 41 42 0 23-18 41-41 41z m-542 11v52l0 0c0 11 9 21 21 21h208l0 0c12 0 21-10 21-21v-52 0c0-6-5-11-10-11h-230l0 0c-5 0-10 5-10 11 0 0 0 0 0 0z" horiz-adv-x="1000" />

<glyph glyph-name="remove-circle" unicode="&#xe80c;" d="M500-129l0 0c265 0 479 214 479 479 0 265-214 479-479 479-265 0-479-214-479-479l0 0c0-264 215-479 479-479z m-206 626l0 0c-17 16-17 43-1 59 16 17 42 17 59 1 0 0 0 0 1-1l140-140 0 0c4-4 10-4 14 0l140 140 0 0c16 17 43 17 59 1 17-16 17-42 1-59 0 0 0 0-1-1l-140-140 0 0c-4-4-4-10 0-14l140-140 0 0c17-16 17-43 1-59-16-17-42-17-59-1 0 0 0 0-1 1l-140 140 0 0c-4 4-10 4-14 0l-140-140 0 0c-17-16-43-16-59 1-16 16-16 42 0 58l140 140 0 0c4 4 4 10 0 14z" horiz-adv-x="1000" />

<glyph glyph-name="monitor-play" unicode="&#xe80d;" d="M1000 732l0 0c1 58-46 106-104 108h-792l0 0c-58-2-105-50-104-108v-580l0 0c0-69 56-125 125-125h302 0c6 0 11-5 11-10v-63 0c0-6-5-10-11-10h-219 0c-23 0-41-19-41-42 0-23 18-42 41-42h584 0c23 0 41 19 41 42 0 23-18 42-41 42h-261 0c-5 0-10 4-10 10 0 0 0 0 0 0v63l0 0c0 5 5 10 10 10h344l0 0c69 0 125 56 125 125z m-917 0l0 0c-1 12 9 23 21 24h792l0 0c12-1 22-12 21-24v-497 0c0-11-10-20-21-20h-792 0c-11 0-21 9-21 20 0 0 0 0 0 0z m305-355l0 0c0-15 12-27 26-27 5 0 10 1 14 4l247 114 0 0c12 7 16 24 9 36-3 4-6 7-9 10l-247 113 0 0c-12 8-29 4-37-9-2-4-3-9-3-14z" horiz-adv-x="1000" />

<glyph glyph-name="list-bullets" unicode="&#xe80e;" d="M178 757c41-41 41-107 0-147-41-41-107-41-147 0-41 40-41 106 0 147 40 41 106 41 147 0m176-115h604l0 0c23 0 42 18 42 41 0 23-19 42-42 42h-604l0 0c-23 0-41-19-41-42 0-23 18-41 41-41z m-176-218c41-41 41-107 0-148-41-40-107-40-147 0-41 41-41 107 0 148 40 40 106 40 147 0m780-32h-604l0 0c-23 0-41-19-41-42 0-23 18-42 41-42h604l0 0c23 0 42 19 42 42 0 23-19 42-42 42z m-780-302c41-40 41-106 0-147-41-41-107-41-147 0-41 41-41 107 0 147 40 41 106 41 147 0m780-32h-604 0c-23 0-41-18-41-41 0-23 18-42 41-42h604 0c23 0 42 19 42 42 0 23-19 41-42 41z" horiz-adv-x="1000" />

<glyph glyph-name="gaming-ribbon-first" unicode="&#xe80f;" d="M974 26l-125 216 0 0c-3 5-10 7-15 4-1-1-3-2-4-4l0 0c-34-68-104-109-180-106l0 0c-3 0-5-1-7-4l0 0c-12-12-26-23-41-31l0 0c-4-3-6-10-3-15l122-207 0 0c12-20 38-26 57-15 9 5 15 13 18 22l35 95 100-17 0 0c22-3 44 12 48 35 1 9 0 19-5 27z m-616 106l0 0c-2 3-5 4-8 4l0 0c-76-3-146 38-180 106l0 0c-2 3-5 5-9 5l0 0c-4 1-8-1-9-5l-125-216 0 0c-12-20-5-45 15-57 8-5 18-6 28-5l99 17 35-95 0 0c8-22 32-33 53-25 9 3 17 9 22 18l122 207 0 0c3 5 2 11-3 14l0 0c-15 9-28 20-40 32z m259 72l0 0c70-22 144 17 166 86 8 26 8 54 0 80l0 0c65 34 90 113 56 178-12 24-32 44-56 56l0 0c22 70-16 144-86 166-26 8-54 8-80 0l0 0c-33 65-113 90-178 56-24-12-44-32-56-56l0 0c-70 22-144-16-166-86-8-26-8-54 0-80l0 0c-65-33-90-113-56-178 12-24 32-43 56-56l0 0c-22-69 16-144 86-166 26-8 54-8 80 0l0 0c33-65 113-90 178-56 24 12 44 32 56 56z m-182 321l0 0c-13-11-33-8-43 6-11 14-8 33 6 44l50 37 0 0c16 12 37 14 54 5l0 0c18-9 29-27 29-46v-157h11 0c17 0 31-14 31-31 0-17-14-31-31-31h-84 0c-17 0-31 14-31 31 0 17 14 31 31 31h11v136z" horiz-adv-x="1000" />

<glyph glyph-name="dating-rose-vase" unicode="&#xe810;" d="M620 240l0 0c-31 12-53 39-59 72l0 0c-2 10-10 17-20 17h-129l0 0c-10 0-19-7-20-17l0 0c-6-33-29-60-59-72-89-36-148-104-148-182 0-115 130-208 291-208 161 0 292 93 292 208 0 78-60 146-148 182z m97 585l0 0c-30 15-63 24-97 25h0l0 0c-28 3-56-10-71-34-21-43 19-103 93-140l0 0c30-16 63-25 96-26l0 0c29-3 57 10 72 35 21 42-19 102-93 140z m-288-409l0 0c9-2 16-11 14-21l0 0c-2-11 6-22 17-24 1 0 2 0 4 0h42l0 0c10 0 18 7 20 17l0 0c6 36 19 71 40 101l0 0c5 7 13 10 22 8l0 0c11-3 23-5 35-5l0 0c55 0 106 32 131 81l11 23 0 0c3 5 0 11-5 13-1 1-3 2-5 2l0 0c-46-4-91 6-132 27l0 0c-41 20-76 51-100 89l0 0c-3 5-10 7-15 4-1-1-3-3-4-4l-11-23 0 0c-23-46-20-100 6-143l0 0c5-7 5-16 0-23-5-6-9-12-13-19l0 0c-2-3-5-5-9-5l0 0c-3 0-6 2-8 5l0 0c-35 51-95 80-157 75l0 0c-12 0-20-10-19-22l0 0c6-76 61-140 136-156z" horiz-adv-x="1000" />

<glyph glyph-name="conversation-chat-2" unicode="&#xe811;" d="M604 413h177 0c6 0 11 4 11 10v198l0 0c0 103-84 187-188 187h-416l0 0c-104 0-188-84-188-187v-167l0 0c0-103 84-187 188-187h20v-146l0 0c0-12 10-21 21-21 6 0 12 3 16 7l136 156 0 0c2 2 5 4 8 4h42l0 0c5 0 9 3 10 8l0 0c14 79 83 137 163 138z m396-167v0c0 57-47 104-104 104h-292l0 0c-57 0-104-47-104-104 0 0 0 0 0 0v-125l0 0c0-58 47-104 104-104h75l119-119 0 0c8-8 21-8 29 0 4 4 6 9 6 14v105h63l0 0c57 0 104 46 104 104z" horiz-adv-x="1000" />

<glyph glyph-name="single-neutral-circle-alternate" unicode="&#xe812;" d="M500 850l0 0c-276 0-500-224-500-500 0-276 224-500 500-500 276 0 500 224 500 500l0 0c0 276-224 500-500 500z m0-104l0 0c218 0 396-176 396-394 0-93-32-183-92-254l0 0c-6-8-16-10-24-6-37 17-81 33-132 51l-31 12 0 0c-7 5-12 14-13 23l0 0c-7 21-4 44 7 64 45 49 72 101 72 212l0 0c9 99-64 185-162 194-7 1-14 1-21 1l0 0c-99 3-181-75-184-174 0-7 0-14 1-21 0-111 27-163 72-212l0 0c11-20 14-43 8-64l0 0c-1-9-6-18-14-23l-31-12c-50-18-95-35-131-51l0 0c-9-4-19-2-25 6l0 0c-140 167-117 416 50 556 71 60 161 92 254 92z" horiz-adv-x="1000" />

<glyph glyph-name="printer" unicode="&#xe813;" d="M957 420l-73 182 0 0c-9 24-32 40-58 40h-86l0 0c-6 0-11 4-11 10 0 0 0 0 0 0v79l0 0c0 12-5 23-13 30l-83 78 0 0c-8 7-18 11-29 11h-291l0 0c-23 0-42-19-42-42 0 0 0 0 0 0v-156 0c0-6-5-10-11-10h-86l0 0c-25 0-49-16-58-40l-73-182 0 0c-1-4-1-7-1-10l37-297 0 0c4-31 31-55 62-55h55l0 0c6 0 11-4 11-10 0-1 0-2-1-3l-38-143 0 0c-6-22 7-45 30-51 3-1 7-1 10-1h563l0 0c23 0 42 19 42 42-1 3-1 7-2 10l-38 143 0 0c-1 6 2 12 7 13 1 0 2 0 3 0h76l0 0c32 0 58 24 62 55l37 297 0 0c0 3 0 6-1 10z m-321 138h-271l0 0c-6 0-11 5-11 11 0 0 0 0 0 0v187l0 0c0 6 5 11 11 11 0 0 0 0 0 0h219l0 0c2 0 5-1 7-3l52-48 0 0c2-2 3-5 3-8v-139l0 0c0-6-5-11-10-11z m218-250v0c0-23-18-41-41-41-23 0-42 18-42 41 0 23 19 42 42 42l0 0c23 0 41-19 41-42z m-532-153l0 0c1 4 5 8 10 8h316l0 0c4 0 8-4 10-8l55-209 0 0c2-5-2-11-7-12-1-1-2-1-3-1h-427l0 0c-6 0-10 5-10 11 0 1 0 1 0 2z" horiz-adv-x="1000" />

<glyph glyph-name="love-plant" unicode="&#xe814;" d="M469 383l0 0c16-17 43-18 60-2 0 1 1 1 1 2v0l203 211 0 0c58 58 58 153 0 212-22 22-51 37-82 42l0 0c-48 8-96-8-130-42l0 0c-12-11-30-11-42 0l0 0c-58 59-153 59-212 0-11-11-21-25-28-39l0 0c-29-58-18-127 28-173z m-172 350l0 0c14 28 41 47 72 52l0 0c11 1 21-7 23-18 1-11-6-21-17-23l0 0c-18-3-33-14-41-30l0 0c-7-15-7-32-1-47l0 0c5-10 1-23-9-28-11-5-23-1-28 10 0 0 0 0 0 1l0 0c-13 26-12 57 1 83z m584-340l0 0c-5-2-11 0-14 5-1 2-1 4-1 6 15 90-89 126-143 55-41-53-16-180-3-234l0 0c3-13 14-21 27-21 55 2 184 12 225 65 54 72-8 162-91 124z m-582-4c-59 78-172 38-154-61l0 0c1-5-3-11-9-12-2 0-4 0-6 1-91 43-159-56-100-133 44-58 184-69 244-71l0 0c14-1 26 9 29 22 14 59 41 196-4 254z m376-190l0 0c-13 9-31 6-42-6l0 0c-21-24-47-43-77-55l0 0c-6-2-12 1-14 6 0 1-1 2-1 4v150l0 0c0 17-14 31-31 31h-21l0 0c-17 0-31-14-31-31v-258l0 0c0-6-5-10-10-10-2 0-3 0-4 0l0 0c-30 12-57 31-78 55l0 0c-10 13-28 15-42 6l-17-12 0 0c-14-10-18-29-8-43 1-1 1-2 2-3l0 0c37-44 87-76 142-91l0 0c9-3 15-11 15-20v-30l0 0c0-23 19-42 42-42 23 0 41 19 41 42v138l0 0c0 9 6 17 15 20l0 0c56 15 105 47 143 91l0 0c11 13 9 33-5 44 0 1-1 1-2 2z" horiz-adv-x="1000" />

<glyph glyph-name="house-2" unicode="&#xe815;" d="M988 380l-458 458 0 0c-17 16-43 16-59 0l-459-458 0 0c-16-17-16-43 0-59 8-8 19-13 30-13h52 0c6 0 10-4 10-10v-406l0 0c0-23 19-42 42-42h239 0c6 0 11 5 11 10v198l0 0c0 58 47 105 104 105 58 0 104-47 104-105 0 0 0 0 0 0v-198l0 0c0-5 5-10 11-10h239 0c23 0 42 19 42 42v406l0 0c0 6 5 10 10 10h52l0 0c23 0 42 19 42 42 0 11-4 22-12 30z" horiz-adv-x="1000" />

<glyph glyph-name="gaming-100" unicode="&#xe816;" d="M500 392h0c-11 0-21-10-21-21 0 0 0 0 0 0v-83l0 0c0-12 10-21 21-21 12 0 21 9 21 21v83l0 0c0 11-9 21-21 21z m188 0h0c-12 0-21-10-21-21 0 0 0 0 0 0v-83l0 0c0-12 9-21 21-21 11 0 20 9 20 21v83l0 0c0 11-9 21-20 21z m225 116l0 0c-7 5-11 14-9 23l0 0c22 101-42 201-143 223-26 6-54 6-81 0l0 0c-8-2-17 2-22 9l0 0c-55 88-171 114-259 58-23-15-42-34-57-58l0 0c-5-7-14-11-22-9l0 0c-101 23-202-41-224-142-6-27-6-55 0-82l0 0c2-8-2-17-9-22l0 0c-88-55-114-171-58-259 15-23 35-43 58-57l0 0c7-5 11-14 9-23l0 0c-22-101 42-201 143-223 27-6 54-6 81 0l0 0c8 2 17-2 22-9l0 0c56-88 172-113 259-58 23 15 43 35 57 58l0 0c5 7 14 11 22 9l0 0c102-23 202 41 224 143 6 26 6 54 0 81l0 0c-2 8 2 17 9 22l0 0c88 56 114 172 58 259-15 23-35 43-58 57z m-559-283h-83 0c-12 0-21 9-21 21 0 11 9 21 21 21h0c11 0 21 9 21 21v83 0c0 11-10 21-21 21h0c-12 0-21 9-21 21 0 11 9 20 21 20h21l0 0c23 0 41-18 41-41v-104l0 0c0-12 10-21 21-21 0 0 0 0 0 0h0c12 0 21-10 21-21 0-12-9-21-21-21z m209 63v0c0-35-28-63-63-63-34 0-62 28-62 63v83l0 0c0 34 28 62 62 62 35 0 63-28 63-62 0 0 0 0 0 0z m187 0v0c0-35-28-63-62-63-35 0-63 28-63 63v83l0 0c0 34 28 62 63 62 34 0 62-28 62-62 0 0 0 0 0 0z" horiz-adv-x="1000" />

<glyph glyph-name="dating-lipstick" unicode="&#xe817;" d="M289 355l0 0c-24 25-64 25-88 0 0 0 0 0 0 0l-173-172 0 0c-24-25-24-64 0-89l226-226v0l0 0c25-24 64-24 89 0l172 173 0 0c25 24 25 64 0 88z m440 7l0 0c-1 3 0 6 3 8l249 250 0 0c25 25 26 66 0 92-8 8-18 14-28 17l-161 46 0 0c-25 10-54 4-73-15l-189-189 0 0c-3-2-6-3-9-3l0 0c-19 3-39-3-53-17l-137-136 0 0c-8-9-8-22 0-30l214-214 0 0c8-8 21-8 30 0l136 137 0 0c14 14 21 34 18 54z m-122 154l0 0c-4 4-4 10 0 14 0 0 0 0 0 0l159 160 0 0c3 2 7 3 10 2l107-30 0 0c6-2 9-7 7-13 0-2-1-3-2-4l-198-198 0 0c-4-4-10-4-15 0z m-401-34l0 0c9-9 25-9 34 0 0 0 0 0 1 0l172 178 0 0c35 34 43 86 21 129l0 0c-28 55-97 77-152 48-10-5-20-12-28-19l-17-16 0 0c-8-7-20-7-28 0l-17 16 0 0c-44 43-116 43-160-2-8-8-15-17-20-27l0 0c-22-43-13-95 21-129z m666-404l0 0c-12-10-30-10-41 0l0 0c-30 30-78 29-107-1-6-5-10-11-14-18l0 0c-14-28-8-63 14-85l116-119 0 0c3-3 7-5 11-5l0 0c5 0 9 2 12 5l115 119 0 0c23 22 29 57 14 85l0 0c-19 37-65 52-102 33-6-4-13-8-18-14z" horiz-adv-x="1000" />

<glyph glyph-name="check-1" unicode="&#xe818;" d="M974 838l0 0c-28 20-67 14-87-14l-585-816-195 196 0 0c-25 24-64 24-89 0-24-25-24-64 0-89 0 0 0 0 0 0l248-247 0 0c25-24 65-24 89 2 2 2 4 4 6 6l627 875 0 0c20 28 14 67-14 87z" horiz-adv-x="1000" />

<glyph glyph-name="shopping-cart-empty-1" unicode="&#xe819;" d="M986 568l0 0c6 22-7 45-29 51-4 1-7 2-11 2h-715l0 0c-5 0-9 3-10 8l-24 114 0 0c-13 62-68 107-132 107l0 0c-29 0-52-23-52-52 0-29 23-52 52-52l0 0c14 0 27-11 30-25l132-628 0 0c7-32 25-61 52-80l0 0c4-4 5-10 2-15-1-1-1-1-2-2l0 0c-35-30-38-82-8-117 30-35 82-39 117-9 29 25 37 66 20 100l0 0c-1 4-1 7 1 10l0 0c2 3 5 5 9 5h248l0 0c6 0 11-4 11-10 0-2 0-3-1-5l0 0c-21-41-4-91 37-111 12-6 25-9 37-9l0 0c46 0 84 37 84 83 0 13-3 26-9 38l0 0c-3 5-1 11 4 13 2 1 3 1 5 1h0c28 0 52 24 52 53 0 28-24 52-52 52h-474l0 0c-15 0-28 10-31 24l-7 36 0 0c-2 6 2 11 8 12 0 0 1 1 2 1h448l0 0c56 0 106 37 121 92z" horiz-adv-x="1000" />

<glyph glyph-name="pencil" unicode="&#xe81a;" d="M675 704l0 0c-9 8-22 8-30 0l-475-476 0 0c-9-8-9-21 0-29l178-179 0 0c8-8 21-8 29 0l476 476 0 0c8 8 8 21 0 29z m-550-550l0 0c-8 8-21 8-29 0-3-3-4-5-5-9l-90-267 0 0c-2-8 0-16 5-21l0 0c6-6 14-8 22-6l267 90 0 0c11 3 17 15 14 26-1 3-3 6-5 8z m832 654l0 0c-58 55-150 55-208 0l-29-30 0 0c-9-8-9-21 0-29l178-179 0 0c8-8 21-8 29 0l30 30 0 0c57 57 57 150 0 208z" horiz-adv-x="1000" />

<glyph glyph-name="love-it-add" unicode="&#xe81b;" d="M396 136l0 0c0 2-1 5-3 7l-254 276 0 0c-58 56-72 143-35 215l0 0c27 54 78 91 138 100l0 0c61 10 123-9 166-53l64-58 0 0c16-15 40-15 56 0l65 59 0 0c44 43 105 62 166 52l0 0c59-9 111-47 138-101l0 0c28-53 26-117-5-168l0 0c-2-3-2-6-1-9l0 0c1-3 3-5 5-6l0 0c18-9 36-19 52-31l0 0c2-2 5-3 8-2l0 0c3 0 6 2 7 5l0 0c46 76 49 170 9 249l0 0c-70 135-235 188-370 119-24-13-46-29-66-48l-36-32-34 31 0 0c-62 62-151 90-237 76l0 0c-86-14-161-68-200-146l0 0c-53-103-32-229 50-310l296-321 0 0c4-4 11-4 15 0 2 2 3 4 3 7z m333 285l0 0c-149 0-271-121-271-270 0-150 122-271 271-271 150 0 271 121 271 271l0 0c0 149-121 270-271 270z m104-239h0c18 0 32-14 32-31 0-18-14-32-32-32h-62 0c-6 0-11-4-11-10 0 0 0 0 0 0v-63 0c0-17-14-31-31-31-17 0-31 14-31 31v63 0c0 6-5 10-10 10h-63 0c-17 0-31 14-31 32 0 17 14 31 31 31h63 0c5 0 10 5 10 10v63l0 0c0 17 14 31 31 31 17 0 31-14 31-31 0 0 0 0 0 0v-63l0 0c0-5 5-10 11-10 0 0 0 0 0 0z" horiz-adv-x="1000" />

<glyph glyph-name="gaming-trophy-5" unicode="&#xe81c;" d="M688 15v0c-60 5-96 27-103 112l0 0c-1 11-11 20-23 19 0 0-1 0-1 0l0 0c-40-6-81-6-122 0l0 0c-11 1-22-7-23-18 0-1 0-1 0-1-8-86-44-107-103-112l0 0c-46-5-79-46-74-91 5-42 40-74 82-74h358l0 0c46 0 82 37 82 83 0 42-32 77-74 82z m229 606h-11l0 0c-11 0-20 9-21 21 0 1 1 1 1 2l0 0c6 48 9 95 10 143l0 0c0 34-27 63-62 63 0 0 0 0-1 0h-666l0 0c-35 0-63-28-63-62 0-1 0-1 0-1l0 0c1-48 4-95 10-143l0 0c2-11-6-21-18-23-1 0-2 0-3 0h-10l0 0c-46 0-83-37-83-83 0 0 0 0 0 0v-105l0 0c0-87 54-165 136-195l0 0c22-8 46 3 54 25 8 21-3 45-25 53 0 0 0 0 0 0l0 0c-49 18-82 65-82 117v84l0 0c0 11 10 21 21 21h15l0 0c9 0 17-7 20-16 56-205 182-318 361-318 179 0 305 113 362 318l0 0c2 9 10 16 20 16h14 0c11 0 21-10 21-21 0 0 0 0 0 0v-84l0 0c0-52-33-99-82-117l0 0c-22-8-33-32-25-53 8-22 32-33 54-25 0 0 0 0 0 0l0 0c82 30 136 108 136 195v105 0c0 46-37 83-83 83z m-458-11h62l0 0c52 0 94-42 94-93 0-52-42-94-94-94h-104 0c-17 0-31 14-31 31 0 17 14 31 31 31h104 0c17 0 31 14 31 32 0 17-14 31-31 31h-62l0 0c-41 0-73 33-73 73v83l0 0c0 17 14 31 31 31h167l0 0c17 0 31-14 31-31 0-17-14-31-31-31h-125 0c-6 0-11-5-11-10 0 0 0 0 0 0v-42l0 0c0-6 5-11 11-11 0 0 0 0 0 0z" horiz-adv-x="1000" />

<glyph glyph-name="dislike-2" unicode="&#xe81d;" d="M5 360l0 0c-20-66 18-136 84-156 11-3 24-5 36-5h204l0 0c23 0 42-19 42-42 0-3-1-7-1-10l-37-140 0 0c-16-60 20-122 80-138 46-12 94 6 121 44l204 289 0 0c8 11 21 18 34 18h86l0 0c9-25 32-42 59-42h62 0c12 0 21 9 21 21v583 0c0 12-9 21-21 21h-62 0c-35 0-63-28-63-62 0 0 0 0 0 0v-27c-213 108-260 121-404 121-15 0-98-1-128-1-116 0-194-68-237-207l-79-265c0 0 0-1-1-2z m80-24l0 1 80 266c32 103 79 147 157 147 31 0 57 0 81 1 174 2 191 2 440-124l0 0c7-4 11-11 11-19v-284 0c0-12-9-21-21-21h-61l0 0c-40 0-78-20-102-53l-203-289 0 0c-11-13-30-16-43-5-2 1-3 2-5 4l0 0c-6 7-8 17-5 26l36 139 0 0c18 67-22 135-89 153-10 3-21 4-31 4h-205l0 0c-23 0-42 19-42 42 0 4 1 8 2 12z" horiz-adv-x="1000" />

<glyph glyph-name="dating-chat-woman" unicode="&#xe81e;" d="M698 850c-167 0-302-112-302-250l0 0c1-61 26-119 70-161l0 0c6-6 8-15 5-23l-27-69 0 0c-4-10 1-22 12-27 5-1 10-1 14 0l118 39 0 0c7 3 15 3 23 1l0 0c29-7 58-11 87-11 167 0 302 113 302 251 0 138-135 250-302 250z m127-258l-103-108 0 0c-11-12-29-12-40-1-1 0-1 1-1 1l-104 108 0 0c-28 28-28 75 0 103 29 29 75 29 104 1l0 0c11-12 29-12 41-1 0 0 0 0 0 1l0 0c28 28 75 28 103-1 29-28 29-75 0-103z m-429-335v0c0 98-79 177-177 177-98 0-177-79-177-177l0 0c4-35-7-71-29-98l0 0c-18-15-20-41-5-59 15-17 41-19 59-4 1 1 3 2 4 4l0 0c6 6 12 13 17 20l0 0c2 2 5 4 8 4l0 0c2 1 5 0 8-2l0 0c66-57 164-57 230 0l0 0c2 2 5 3 8 2l0 0c3 0 5-2 7-4l0 0c5-7 11-14 17-20l0 0c17-16 43-16 59 1 16 16 16 42 0 58l0 0c-23 27-33 63-29 98z m-177-94l0 0c-47 0-87 35-93 81l0 0c-1 6 3 11 8 12l0 0c13 2 26 6 38 12l0 0c15 7 28 17 38 30l0 0c4 5 10 6 15 2 1 0 1-1 2-2l0 0c10-13 23-23 38-30l0 0c12-6 25-10 38-12l0 0c5-1 9-6 8-12l0 0c-6-46-45-81-92-81z m113-105l0 0c-6 3-13 4-19 1l0 0c-37-18-67-47-85-83l0 0c-3-5-9-7-14-4-2 1-3 2-4 4l0 0c-19 36-48 65-85 83l0 0c-6 3-14 2-20-1l0 0c-65-40-105-111-105-187l0 0c0-12 9-21 21-21h396 0c11 0 21 9 21 21l0 0c0 76-40 147-106 187z" horiz-adv-x="1000" />

<glyph glyph-name="bless-icon" unicode="&#xe81f;" d="M322-3c75 43 151 83 211 145 45 47 70 102 29 163-32 49-105 54-170 19-36-20-63-51-92-85 24 108 129 192 230 186 92-5 164-80 172-186 5-66-28-121-73-166-93-94-209-156-324-223-108 110-235 201-292 350-36 94 5 199 87 241 76 39 177 11 231-65-66 30-130 35-179-26-45-55-37-126 18-194 23-30 48-58 74-85 25-26 51-49 78-74z m29 441c-21 4-40 10-58 20l0 0c-19 11-35 27-46 46l0 0c-11 19-16 40-16 61 1 17 2 34 7 49 8 26 19 51 29 77 6 15 13 30 19 46 7 19 14 39 19 59 4 14 5 28 8 42 0 4 1 8 1 12 8-6 17-11 25-17 23-17 46-33 68-50l0 0c16-13 31-26 45-40l0 0c14-14 27-29 39-46l0 0c11-14 20-30 27-46l0 0c11-24 17-50 18-76l0 0c1-23-5-46-16-67-17-29-41-49-74-59 0 0-1 0-1 0 17 16 29 36 36 58 9 31 10 63-2 93l0 0c-7 18-16 34-26 49-18 26-42 45-68 62-1 0-3 1-4 2l0 0c7-25 9-51 7-76l0 0c-3-25-10-50-20-73l0 0c-6 24-21 46-43 59l0 0c-1-8-2-16-4-23-6-19-13-38-18-57-5-22-6-45 6-66 10-16 24-28 40-38z" horiz-adv-x="1000" />

<glyph glyph-name="remove-circle-alternate" unicode="&#xe820;" d="M10 350l0 0c0-270 220-490 490-490 270 0 490 220 490 490 0 270-220 490-490 490l0 0c-270-1-489-220-490-490z m875 0l0 0c0-213-172-386-385-386-213 0-385 173-385 386 0 213 172 386 385 386 0 0 0 0 0 0l0 0c213-1 385-173 386-386z m-517 206l0 0c-20 20-53 20-74 0-20-21-20-54 0-74 0 0 0 0 0 0l125-125 0 0c4-4 4-10 0-14 0 0 0 0 0 0l-125-125 0 0c-20-20-21-53-1-74 20-20 53-21 74-1 0 1 1 1 1 1l125 125 0 0c4 4 10 4 14 0 0 0 0 0 0 0l125-125 0 0c20-20 53-20 74 0 20 21 20 54 0 74 0 0 0 0 0 0l-125 125 0 0c-4 4-4 10 0 14 0 0 0 0 0 0l125 125 0 0c20 20 21 53 1 74-20 20-53 21-74 1 0-1-1-1-1-1l-125-125 0 0c-4-4-10-4-14 0z" horiz-adv-x="1000" />

<glyph glyph-name="music-note-1" unicode="&#xe821;" d="M618 716c-40 27-60 54-60 82v0c0 29-24 52-52 52-29 0-53-23-53-52v-604 0c0-6-4-11-10-11h-52l0 0c-92 0-167-74-167-166 0-92 75-167 167-167l0 0c91 2 164 75 167 167v594l0 0c0 6 4 11 10 11 2 0 4-1 6-2 143-103 102-210 54-333l-4-12 0 0c-12-27 0-57 26-69 26-12 57 0 69 26 1 2 1 4 2 6l5 12c48 125 120 314-108 466z" horiz-adv-x="1000" />

<glyph glyph-name="location-target" unicode="&#xe822;" d="M618 468c65-65 65-171 0-236-65-65-171-65-236 0-65 65-65 171 0 236 65 65 171 65 236 0m340-76h-67l0 0c-10 0-19 7-21 17l0 0c-26 160-151 285-311 311l0 0c-10 2-17 11-17 21v67 0c0 23-19 42-42 42-23 0-42-19-42-42v-67l0 0c0-10-7-19-17-21l0 0c-160-26-285-151-311-311l0 0c-2-10-10-17-21-17h-67l0 0c-23 0-42-19-42-42 0-23 19-42 42-42h67l0 0c11 0 19-7 21-17l0 0c26-160 151-285 311-311l0 0c10-2 17-11 17-21v-67l0 0c0-23 19-42 42-42 23 0 42 19 42 42v67l0 0c0 10 7 19 17 21l0 0c160 26 285 151 311 311l0 0c2 10 11 17 21 17h67l0 0c23 0 42 19 42 42 0 23-19 42-42 42z m-458-334l0 0c-161 0-292 131-292 292 0 161 131 292 292 292 161 0 292-131 292-292l0 0c0-161-131-291-292-292z" horiz-adv-x="1000" />

<glyph glyph-name="gaming-second-place" unicode="&#xe823;" d="M627 378l0 0c-5 2-11-1-13-6-1-1-1-3-1-4v-55l0 0c0-6 5-11 11-10 1 0 2 0 3 0l0 0c21 5 34 26 28 47-3 14-14 25-28 28z m353 45l0 0c19 18 25 47 15 72l0 0c-10 26-36 43-63 43h-204l0 0c-15 0-30 8-37 22l-130 253 0 0c-18 34-59 47-93 29-12-6-22-16-29-29l-130-253 0 0c-7-14-21-22-37-22h-203l0 0c-28 0-53-17-64-43l0 0c-10-25-4-54 15-72l176-172 0 0c11-11 15-28 10-43l-92-270 0 0c-9-25-1-54 20-71l0 0c21-19 52-22 77-9l270 139 0 0c12 6 26 6 38 0l270-139 0 0c26-13 56-10 77 9l0 0c21 17 29 46 20 71l-92 270 0 0c-5 15-1 32 10 43z m-566-200l0 0c2-4 6-6 10-6h34 0c18 0 32-14 32-31 0-18-14-32-32-32h-125l0 0c-17 0-31 14-31 32 0 7 3 14 8 20l108 127 0 0c6 5 9 12 9 19l0 0c1 16-12 30-28 30-13 0-25-8-29-21l0 0c-5-16-23-25-39-19-17 5-26 23-20 39 0 0 0 0 0 0l0 0c15 48 67 75 115 59 38-13 64-48 64-88l0 0c0-23-10-45-26-61l-48-57 0 0c-3-3-3-8-2-11z m216 17l0 0c-10-2-17-11-17-21v-33 0c0-18-14-32-31-32-17 0-31 14-31 32v227l0 0c0 17 14 31 31 31h26l0 0c59 2 109-45 111-103l0 0c-2-51-39-93-89-101z" horiz-adv-x="1000" />

<glyph glyph-name="dating-search" unicode="&#xe824;" d="M976-8l-164 164 0 0c-7 7-8 17-3 26l0 0c128 205 65 475-141 603-205 127-475 64-603-141-127-205-64-475 141-603 142-88 321-88 462 0l0 0c9 5 19 4 26-3l164-164 0 0c33-32 86-31 118 2 31 33 31 84 0 116z m-538 66l0 0c-196 0-355 159-355 355 0 195 159 354 355 354 195 0 354-159 354-354l0 0c-1-196-159-354-354-355z m144 553l0 0c-43 8-87-7-118-38l0 0c-10-9-25-9-34 0 0 0-1 0-1 0l0 0c-53 53-139 53-192-1-53-53-53-138-1-191l196-204 0 0c8-9 21-9 29-1 0 0 0 1 1 1l195 203 0 0c41 42 51 105 25 158l0 0c-19 39-57 66-100 73z" horiz-adv-x="1000" />

<glyph glyph-name="conversation-chat-2-alternate" unicode="&#xe825;" d="M396 329h-21l0 0c-12 0-23-5-31-14l-73-83v56 0c0 23-19 41-42 41h-21l0 0c-69 0-125 56-125 125 0 0 0 0 0 0v167l0 0c0 69 56 125 125 125h396l0 0c69 0 125-56 125-125 0 0 0 0 0 0v-146l0 0c0-23 19-42 42-42 23 0 42 19 42 42v146l0 0c-1 115-94 208-209 208h-396l0 0c-115 0-208-93-208-208v-167l0 0c0-107 81-196 188-207v-126l0 0c0-23 18-42 41-42 12 0 24 5 32 14l133 153h2l0 0c23 0 42 19 42 42 0 23-19 41-42 41z m479 42h-271l0 0c-69 0-125-56-125-125 0 0 0 0 0 0v-125l0 0c0-69 56-125 125-125h66l113-113 0 0c16-16 43-16 59 0 8 8 12 18 12 29v84h21l0 0c69 0 125 56 125 125v125l0 0c0 69-56 125-125 125 0 0 0 0 0 0z m42-250v0c0-23-19-42-42-42h-62 0c-23 0-42-18-42-41 0 0 0 0 0 0v-25l-54 54 0 0c-8 8-18 12-29 12h-84 0c-23 0-41 19-41 42 0 0 0 0 0 0v125l0 0c0 23 18 42 41 42h271l0 0c23 0 42-19 42-42z" horiz-adv-x="1000" />

<glyph glyph-name="tags" unicode="&#xe826;" d="M58 376l490-482 1-1 0 0c33-32 85-31 117 1l294 294 0 0c33 33 33 85 0 118 0 0 0 0 0 1l-489 481c-1 0-2 1-2 2l0 0c-28 25-63 39-100 41h-270l0 0c-47 0-84-38-84-84 0 0 0 0 0 0l0-270 0 0c2-38 17-74 43-101z m145 205l0 0c0 34 28 62 62 62 35 0 63-28 63-62 0-35-28-63-63-63l0 0c-34 0-62 28-62 63 0 0 0 0 0 0z" horiz-adv-x="1000" />

<glyph glyph-name="rating-star" unicode="&#xe827;" d="M982 486l0 0c-10 25-33 41-59 41h-254l0 0c-9 0-16 6-19 14l-91 258 0 0c-12 32-49 49-81 37-17-7-30-20-36-37l-1-1-91-257 0 0c-2-8-10-14-19-14h-254l0 0c-34 0-62-28-62-62 0-19 8-36 22-48l216-179 0 0c7-6 9-15 6-23l-90-272 0 0c-11-33 6-68 39-79 19-7 41-3 57 9l223 163 0 0c7 5 17 5 24 0l223-163 0 0c28-21 67-15 87 13 12 16 16 37 9 57l-90 272 0 0c-3 8-1 17 6 23l216 179 0 0c20 17 28 45 19 69z" horiz-adv-x="1000" />

<glyph glyph-name="messages-bubble-add-1" unicode="&#xe828;" d="M729 454l0 0c80 0 157-29 217-81l0 0c80 166 10 364-155 444-45 22-95 33-145 33h-313l0 0c-184 0-333-149-332-333 0-136 82-258 207-309v-170l0 0c0-12 10-21 21-21 6 0 11 2 15 6l155 155 0 0c2 2 3 3 3 5l0 0c30 157 167 271 327 271z m0-62l0 0c-149 0-271-122-271-271 0-150 122-271 271-271 150 0 271 121 271 271l0 0c0 149-121 271-271 271z m31-375v0c0-18-14-32-31-32-17 0-31 14-31 32v62 0c0 6-5 11-10 11h-63 0c-17 0-31 14-31 31 0 17 14 31 31 31h63 0c5 0 10 5 10 11v62l0 0c0 17 14 31 31 31 17 0 31-14 31-31 0 0 0 0 0 0v-62l0 0c0-6 5-11 11-11h62 0c18 0 32-14 32-31 0-17-14-31-32-31h-62 0c-6 0-11-5-11-11 0 0 0 0 0 0z" horiz-adv-x="1000" />

<glyph glyph-name="information-circle" unicode="&#xe829;" d="M500 850l0 0c-276 0-500-224-500-500 0-276 224-500 500-500 276 0 500 224 500 500l0 0c0 276-224 500-500 500z m10-208l0 0c35 0 63-28 63-63 0-34-28-62-63-62-34 0-62 28-62 62l0 0c0 35 28 63 62 63 0 0 0 0 0 0z m94-563h-166 0c-23 0-42 19-42 42 0 23 19 42 42 42h31 0c6 0 10 4 10 10v187 0c0 6-4 11-10 11h-31l0 0c-23 0-42 19-42 42 0 23 19 41 42 41h41l0 0c46 0 84-37 84-83v-198l0 0c0-6 4-10 10-10h31 0c23 0 42-19 42-42 0-23-19-42-42-42z" horiz-adv-x="1000" />

<glyph glyph-name="gaming-5" unicode="&#xe82a;" d="M913 508l0 0c-7 5-11 14-9 23l0 0c22 101-42 201-143 223-26 6-54 6-81 0l0 0c-8-2-17 2-22 9l0 0c-55 88-171 114-259 58-23-15-42-34-57-58l0 0c-5-7-14-11-22-9l0 0c-101 23-202-41-224-142-6-27-6-55 0-82l0 0c2-8-2-17-9-22l0 0c-88-55-114-171-58-259 15-23 35-43 58-57l0 0c7-5 11-14 9-23l0 0c-22-101 42-201 143-223 27-6 54-6 81 0l0 0c8 2 17-2 22-9l0 0c56-88 172-113 259-58 23 15 43 35 57 58l0 0c5 7 14 11 22 9l0 0c102-23 202 41 224 143 6 26 6 54 0 81l0 0c-2 8 2 17 9 22l0 0c88 56 114 172 58 259-15 23-35 43-58 57z m-434-148h63l0 0c51 0 93-42 93-93 0-52-42-94-93-94h-104 0c-18 0-32 14-32 31 0 17 14 31 32 31h104 0c17 0 31 14 31 32 0 17-14 31-31 31h-63l0 0c-40 0-73 33-73 73v83l0 0c0 17 14 31 32 31h166 0c17 0 31-14 31-31 0-17-14-31-31-31h-125 0c-6 0-10-5-10-10 0 0 0 0 0 0v-42l0 0c0-6 4-11 10-11 0 0 0 0 0 0z" horiz-adv-x="1000" />

<glyph glyph-name="dating-makeup" unicode="&#xe82b;" d="M195 556v-34l0 0c0-23 19-42 42-42 23 0 42 19 42 42v35l0 0c-1 3 1 6 3 6 1 0 1 0 2 0l0 0c18 3 36 7 54 13 7 2 8-4 8-4l13-28 0 0c10-20 34-29 55-20l0 0c21 10 30 35 20 56 0 0 0 0 0 0l-14 29c0 0-3 4 3 9l0 0c15 10 30 23 43 36l0 0c16 16 16 42 0 59-16 16-43 16-59 0l0 0c-45-45-105-70-168-70l0 0c-63 0-123 25-168 70l0 0c-16 16-43 15-59-1-15-16-15-42 0-58l0 0c12-12 25-23 39-33l0 0c4-1 5-5 4-9 0 0 0 0 0-1l-15-31 0 0c-10-21-1-46 20-56 0 0 0 0 0 0l0 0c21-9 45 0 55 20l14 30c0 0 1 5 9 3l0 0c16-6 34-10 51-13l0 0c4 0 7-4 6-7 0 0 0 0 0-1z m793 98l0 0c16 16 17 42 1 59-16 16-42 17-59 1 0 0-1-1-1-1l0 0c-44-45-105-70-168-70l0 0c-63 0-123 25-168 70l0 0c-16 16-42 17-59 1-16-16-17-42-1-59 1 0 1-1 1-1l0 0c12-12 25-23 39-33l0 0c4-1 6-5 4-9 0 0 0 0 0-1l-15-31 0 0c-10-21-1-46 20-56 0 0 0 0 0 0l0 0c21-9 45 0 56 20l13 30c0 0 2 5 9 3l0 0c17-6 34-10 52-13l0 0c3 0 6-3 6-7 0 0 0 0 0 0v-35l0 0c0-23 18-42 41-42 23 0 42 19 42 42v35l0 0c-1 3 1 6 4 6 0 0 1 0 1 0l0 0c18 3 36 7 54 13 7 2 8-4 8-4l13-28 0 0c11-20 35-29 55-20l0 0c21 10 30 35 20 56 0 0 0 0 0 0l-13 29c0 0-4 4 2 9l0 0c15 11 30 23 43 36z m-152-436l-115 83 0 0c-64 46-146 59-221 34l0 0c-75 25-157 13-220-34 0 0-110-79-116-83l0 0c-11-8-17-20-18-33l0 0c0-13 5-24 14-33l128-112 0 0c45-42 105-65 166-65h92l0 0c61 0 120 23 166 64l128 113 0 0c9 11 14 25 13 39l0 0c-1 11-8 21-17 27z m-508 15l0 0c45 33 105 40 156 19l0 0c10-4 22-4 32 0l0 0c52 21 111 14 156-19 0 0 13-8-2-8h-342c-10 0 0 8 0 8z m364-100l-36-32 0 0c-30-27-69-43-110-43h-92l0 0c-41 0-80 16-111 44 0 0-28 25-33 29-5 5-4 11 3 11h375c12 0 4-9 4-9z" horiz-adv-x="1000" />

<glyph glyph-name="cloud" unicode="&#xe82c;" d="M990 272l0 0c-1 64-27 126-73 171l0 0c-38 36-87 59-140 64l0 0c-3 1-6 2-8 5l0 0c-89 149-282 197-431 107-73-44-126-116-144-200l0 0c-1-5-5-8-10-8l0 0c-98-8-173-89-174-188l0 0c-2-48 17-96 51-131l0 0c40-36 92-56 146-56h566l0 0c1 0 3 0 5 0l0 0c120 13 212 115 212 236z m-220-153h-563l0 0c-32 0-63 12-87 32l0 0c-19 20-28 46-26 72l0 0c0 58 47 105 104 105l0 0c7 0 15-1 22-2l0 0c22-5 44 9 49 32 0 2 1 4 1 6l0 0c7 127 116 224 243 217 85-5 159-56 195-132l0 0c7-16 23-25 40-24l0 0c84 3 155-63 158-147 0-2 0-4 0-6l0 0c0-78-59-144-136-153z" horiz-adv-x="1000" />

<glyph glyph-name="single-man" unicode="&#xe82d;" d="M500 329l0 0c138 0 250 112 250 250 0 138-112 250-250 250-138 0-250-112-250-250l0 0c0-138 112-250 250-250z m0 84l0 0c-92 0-167 74-167 166 0 0 0 0 0 0l0 0c0 21 5 42 13 61l0 0c1 3 3 5 6 6l0 0c3 1 6 1 9-1l0 0c62-37 133-56 205-56l0 0c29 0 59 3 87 10l0 0c6 1 11-3 13-8 0-1 0-1 0-1l0 0c0-4 1-7 1-11l0 0c0-92-75-166-167-166 0 0 0 0 0 0z m0-125l0 0c-218-1-396-178-396-396l0 0c0-12 10-21 21-21h750 0c12 0 21 9 21 21l0 0c0 218-177 395-396 396z" horiz-adv-x="1000" />

<glyph glyph-name="phone-action-heart" unicode="&#xe82e;" d="M599 536l0 0c-33 6-67-5-90-29l-9-8-8 8 0 0c-41 41-107 41-148 0-42-41-42-107-1-148l142-148 0 0c8-9 21-9 30-1 0 0 0 1 0 1l142 148 0 0c32 32 40 80 20 121l0 0c-15 30-44 51-78 56z m109 314h-416l0 0c-69 0-125-56-125-125 0 0 0 0 0 0v-750l0 0c0-69 56-125 125-125h416l0 0c69 0 125 56 125 125v750h0c0 69-56 125-125 125z m42-792v0c0-11-9-20-21-20h-458 0c-12 0-21 9-21 20 0 0 0 0 0 0v646l0 0c0 12 9 21 21 21h458l0 0c12 0 21-9 21-21z" horiz-adv-x="1000" />

<glyph glyph-name="love-it-alternate" unicode="&#xe82f;" d="M971 639l0 0c-69 134-235 187-369 118-24-12-47-28-66-47l-36-33-34 32 0 0c-63 61-151 90-237 75l0 0c-86-14-161-68-200-145l0 0c-53-104-32-230 51-312l390-402 0 0c16-17 43-17 59-1 0 0 1 1 1 1l390 402 0 0c83 81 104 208 51 312z m-110-254l-346-356 0 0c-8-8-21-8-30 0 0 0 0 0 0 0l-346 357 0 0c-58 56-72 143-36 215l0 0c28 54 79 91 139 101l0 0c61 10 123-10 166-54l64-58 0 0c16-15 40-15 56 0l65 59 0 0c44 43 105 63 165 53l0 0c60-10 112-47 139-101l0 0c36-72 22-159-36-216z" horiz-adv-x="1000" />

<glyph glyph-name="gaming-trophy-check" unicode="&#xe830;" d="M688 15v0c-60 5-96 27-103 112l0 0c-1 11-11 20-23 19 0 0-1 0-1 0l0 0c-40-6-81-6-122 0l0 0c-11 1-22-7-23-18 0-1 0-1 0-1-8-86-44-107-103-112l0 0c-46-5-79-46-74-91 5-42 40-74 82-74h358l0 0c46 0 82 37 82 83 0 42-32 77-74 82z m229 606h-11l0 0c-11 0-20 9-21 21 0 1 1 1 1 2l0 0c6 48 9 95 10 143l0 0c0 34-27 63-62 63 0 0 0 0-1 0h-666l0 0c-35 0-63-28-63-62 0-1 0-1 0-1l0 0c1-48 4-95 10-143l0 0c2-11-6-21-18-23-1 0-2 0-3 0h-10l0 0c-46 0-83-37-83-83 0 0 0 0 0 0v-105l0 0c0-87 54-165 136-195l0 0c22-8 46 3 54 25 8 21-3 45-25 53 0 0 0 0 0 0l0 0c-49 18-82 65-82 117v84l0 0c0 11 10 21 21 21h15l0 0c9 0 17-7 20-16 56-205 182-318 361-318 179 0 305 113 362 318l0 0c2 9 10 16 20 16h14 0c11 0 21-10 21-21 0 0 0 0 0 0v-84l0 0c0-52-33-99-82-117l0 0c-22-8-33-32-25-53 8-22 32-33 54-25 0 0 0 0 0 0l0 0c82 30 136 108 136 195v105 0c0 46-37 83-83 83z m-218 37l-168-214 0 0c-29-36-81-42-118-13-2 2-4 4-7 6l-71 71 0 0c-16 16-17 42-1 59 16 17 43 17 59 1 0 0 1-1 1-1l55-54 0 0c4-5 10-7 16-7l0 0c5 1 11 4 15 8l154 195 0 0c14 18 40 21 58 7 18-14 22-40 7-58z" horiz-adv-x="1000" />

<glyph glyph-name="dislike-2-alternate" unicode="&#xe831;" d="M10 357l0 0c-18-60 16-124 76-143 11-3 22-5 34-5h232l0 0c29 0 52-23 52-52 0-7-1-15-5-22l-59-125 0 0c-11-33-5-69 17-96l0 0c36-44 101-51 145-15 7 6 13 13 19 20l204 289 0 0c9 14 25 22 42 22l0 0c11 0 19 9 19 20v471l0 0c0 8-4 15-11 19-154 74-206 84-331 84-15 0-97-1-127-1-112 0-186-65-227-199l-79-265z m839-127h1l0 0c5-30 31-52 61-52h63 0c11 0 21 9 21 21v583 0c0 12-10 21-21 21h-63l0 0c-34 0-62-28-62-62 0 0 0 0 0 0z" horiz-adv-x="1000" />

<glyph glyph-name="dating-couple-balloon" unicode="&#xe832;" d="M979 795l0 0c-26 50-87 69-137 43-9-4-17-10-25-17l-27-27-28 27 0 0c-40 39-105 39-144-2-7-7-13-15-18-24l0 0c-19-38-11-84 19-114l153-157 0 0c9-10 25-10 35 0 0 0 1 0 1 0l152 157 0 0c31 30 38 76 19 114z m-156-385l0 0c11 20 4 45-16 57-20 11-46 4-57-16-1-1-1-2-1-3-43-82-16-159 6-221 28-79 47-131-44-197l0 0c-19-14-23-40-9-59 13-18 39-22 58-9 0 0 0 0 0 0 141 103 104 208 74 293-20 56-38 105-11 155z m-590-121l0 0c-3 2-4 5-5 8l0 0c0 4 2 7 4 9l0 0c53 42 62 118 20 171-41 52-118 61-170 20-53-42-62-118-20-171 5-7 12-14 20-20l0 0c4-4 5-10 1-15 0-1-1-1-2-2l0 0c-44-27-70-74-70-125v-84l0 0c0-11 9-21 20-21h25l0 0c11 0 20-8 21-18l17-172 0 0c2-11 11-19 21-19h84l0 0c11 0 20 8 21 19l17 172 0 0c1 10 10 18 21 18h25 0c11 0 21 10 21 21v84l0 0c0 51-27 98-71 125z m-76 53l0 0c-33 0-59 27-59 59l0 0c0 4 0 8 1 12l0 0c1 6 7 9 12 8 1 0 2 0 3-1l0 0c23-12 48-19 73-19l0 0c6 0 11 1 17 1l0 0c3 0 6-1 9-3l0 0c2-3 3-6 2-9l0 0c-5-28-30-48-58-48z m451-156l0 0c-9 30-29 55-56 71l0 0c-5 3-7 9-4 14 1 2 3 3 4 4l0 0c61 35 82 112 48 173-35 61-112 82-173 47-61-34-82-112-48-172 12-20 28-37 48-48l0 0c5-3 7-9 4-14-1-2-2-3-4-4l0 0c-27-16-47-41-56-71l-49-163 0 0c-2-7-1-13 3-19l0 0c4-5 10-8 17-8l36 0 0 0c11 0 20-8 21-18l11-109 0 0c1-11 10-19 21-19h117l0 0c11 0 20 8 21 19l11 109 0 0c1 10 10 18 21 18l36 0 0 0c7 0 13 3 17 8l0 0c4 6 5 12 3 19z m-118 135l0 0c-27 0-51 17-61 42l0 0c-2 5 1 11 6 13 0 0 0 0 1 0l0 0c17 7 33 17 46 30l0 0c4 3 11 3 15 0l0 0c13-13 29-23 46-30l0 0c6-2 9-8 7-13 0 0 0 0 0 0l0 0c-9-25-33-42-60-42z" horiz-adv-x="1000" />

<glyph glyph-name="book-address" unicode="&#xe833;" d="M840 682l0 0c-10 2-17 10-17 20v65 0c0 46-37 83-83 83h-521l0 0c-69 0-125-56-125-125 0 0 0 0 0 0v-750l0 0c0-69 56-125 125-125h604l0 0c46 0 83 37 83 83v667l0 0c0 40-28 74-66 82z m-663 43l0 0c0 23 19 42 42 42h510 0c6 0 11-5 11-11v-62 0c0-6-5-11-11-11 0 0 0 0 0 0h-510 0c-23 0-42 19-42 42z m566-708l0 0c-4-4-10-7-16-7h-454l0 0c-11 0-20 9-20 21 0 1 0 2 0 3l0 0c4 22 10 43 20 63 19 37 66 60 151 92l0 0c4 10 4 21 0 31l0 0c-34 42-50 95-47 149l0 0c-3 68 49 125 117 129 67 4 125-48 129-116 0-4 0-9 0-13l0 0c3-54-14-108-48-150l0 0c-3-10-3-21 2-31 85-31 131-54 150-91l0 0c10-20 17-41 20-63l0 0c1-6 0-12-4-17z" horiz-adv-x="1000" />

<glyph glyph-name="restaurant-dishes" unicode="&#xe834;" d="M510 433l0 0c-138 0-250-112-250-250 0-138 112-250 250-250 139 0 250 112 250 250l0 0c0 138-111 250-250 250z m13-385l0 0c-7-6-18-6-25 0-35 27-128 105-128 166l0 0c-4 38 23 72 61 76 30 3 58-13 70-41l0 0c3-5 9-7 14-5 2 1 4 3 5 5l0 0c15 35 55 51 90 36 28-12 44-41 41-71 0-61-93-139-128-166z m-231 750h0c-23 0-42-19-42-42 0 0 0 0 0 0v-166l0 0c0-22-8-43-24-59l0 0c-3-3-7-4-11-2l0 0c-4 2-7 5-7 10v217 0c0 23-18 42-41 42-23 0-42-19-42-42v-217l0 0c0-5-3-8-6-10l0 0c-4-2-9-1-12 2l0 0c-15 16-24 37-24 59v166 0c0 23-18 42-41 42-23 0-42-19-42-42v-166l0 0c0-67 39-127 100-153l0 0c15-7 25-22 25-38v-476l0 0c0-23 19-42 42-42 23 0 41 19 41 42v476l0 0c0 16 10 31 25 38l0 0c61 26 100 86 100 153v166l0 0c0 23-18 42-41 42 0 0 0 0 0 0z m552 21h-11 0c-11 0-20-10-20-21 0 0 0 0 0 0v-875l0 0c0-23 18-42 41-42 23 0 42 19 42 42v229l0 0c0 12 9 21 21 21h31l0 0c13 0 26 5 35 14l0 0c11 10 17 24 17 38-2 288-58 594-156 594z" horiz-adv-x="1000" />

<glyph glyph-name="network-heart" unicode="&#xe835;" d="M524-71l0 0c-70 42-125 105-157 180l0 0c-3 5 0 12 5 14 0 0 0 0 1 1l0 0c21 8 32 32 24 53-6 16-21 27-38 27h-16l0 0c-5 0-9 4-10 9l0 0c-10 45-15 91-15 137l0 0c0 39 3 78 10 117l0 0c1 5 6 8 11 8h333l0 0c5 0 9-3 10-8 3-17 6-34 8-52l0 0c1-23 21-40 44-39 23 1 40 21 39 44 0 1 0 2 0 3-2 14-4 27-6 40l0 0c0 6 4 11 9 12 1 0 1 0 2 0h117l0 0c4 0 8-3 10-7l0 0c5-18 9-37 12-55l0 0c4-23 26-38 48-34 22 4 37 24 35 46-62 409-473 427-498 425l0 0c-276-1-499-225-498-501 1-276 225-500 501-499 0 0 0 0 0 0h0l0 0c16 0 31 10 38 24l0 0c9 20 1 44-19 55z m-277 288l0 0c1-6-3-11-9-13 0 0-1 0-2 0h-113l0 0c-5 0-9 3-10 7l0 0c-30 83-32 173-7 257l0 0c1 4 5 7 10 7h116l0 0c6 0 11-5 11-10 0-1 0-1 0-2l0 0c-6-37-9-75-9-113l0 0c0-45 4-89 13-133z m122 341l0 0c-6 0-11 5-11 11 0 1 1 3 1 4l0 0c29 73 77 136 140 183l0 0c4 2 9 2 12 0l0 0c63-47 112-110 140-183l0 0c3-5 0-12-5-14-2 0-3-1-4-1z m487 16l0 0c3-4 1-11-3-14-2-1-4-2-6-2h-94l0 0c-5 0-9 3-10 8l0 0c-17 51-42 100-73 145l0 0c-3 4-2 11 3 14 3 2 7 3 10 1l0 0c70-34 130-86 173-151z m-529 152l0 0c6 3 12 1 14-5 2-3 2-7-1-10l0 0c-31-45-55-94-72-145l0 0c-2-5-6-8-10-8h-94l0 0c-6 0-11 5-11 11 0 2 1 4 2 5l0 0c42 66 102 119 172 152z m-158-622l0 0c-3 5-2 11 2 15 2 1 4 2 7 2h87l0 0c4 0 8-3 9-7l0 0c17-44 39-86 66-125l0 0c4-5 3-11-2-15-3-2-7-2-11 0l0 0c-62 29-117 74-158 130z m708 223l0 0c-47 8-95-7-128-41l-12-12 0 0c-5-4-11-4-15 0l-13 12 0 0c-57 58-150 58-207 0-12-11-21-24-28-38l0 0c-28-56-17-125 27-169l213-223 0 0c8-8 21-8 30 0 0 0 0 0 0 0l213 222 0 0c58 58 58 151 0 208-22 22-50 36-80 41z" horiz-adv-x="1000" />

<glyph glyph-name="love-gift-chocolate-box" unicode="&#xe836;" d="M973 427v0l-411-292 0 0c-37-26-87-26-124 0l-409 291v0c-4 3-8 5-12 8l0 0c-4 4-11 3-14-2-2-2-2-4-2-6v-63l0 0c0-66 32-128 85-166l389-276 0 0c15-11 35-11 50 0l389 276 0 0c54 38 86 100 86 166v63l0 0c0 6-5 10-11 10-2 0-4 0-6-2-3-2-7-5-10-7z m-2 265l0 0c-56 64-139 99-225 95l0 0c-93 5-182-37-237-112l0 0c-3-4-10-6-15-3-1 1-2 2-3 3l0 0c-55 75-144 117-237 112l0 0c-85 4-168-31-225-95-76-103 26-182 47-197l410-292 0 0c9-6 20-6 28 0l410 292c77 52 96 131 47 197z" horiz-adv-x="1000" />

<glyph glyph-name="gaming-treasure-add" unicode="&#xe837;" d="M156 558h-135 0c-12 0-21-9-21-20 0 0 0 0 0 0v-271l0 0c0-58 47-104 104-104h52 0c12 0 21 9 21 20v355 0c0 11-9 20-21 20z m698 0h-135 0c-12 0-21-9-21-20 0 0 0 0 0 0v-63l0 0c0-11 9-21 21-21 0 0 0 0 0 0l0 0c44 2 87-6 128-21l0 0c11-4 23 1 27 12 1 2 1 5 1 7v86 0c0 11-9 20-21 20 0 0 0 0 0 0z m-233-122l0 0c9 3 14 11 14 20v82 0c0 11-9 20-20 20h-52 0c-12 0-21-9-21-20 0 0 0 0 0 0v-42 0c0-58-47-104-104-104-58 0-105 46-105 104v42 0c0 11-9 20-20 20 0 0 0 0 0 0h-53l0 0c-11 0-20-9-20-20 0 0 0 0 0 0v-355l0 0c0-11 9-20 20-20h121l0 0c10 0 18 7 20 17l0 0c22 119 106 217 220 256z m-433 414h-42l0 0c-81 0-146-65-146-146 0 0 0 0 0 0v-62l0 0c0-12 9-21 21-21h135l0 0c12 0 21 9 21 21v104l0 0c0 31 7 61 20 89l0 0c2 5 0 12-5 14-2 1-3 1-4 1z m72-229h355l0 0c11 0 20 9 20 21v104l0 0c1 34-12 67-34 93l0 0c-8 7-18 11-29 11h-269l0 0c-11 0-21-4-29-11l0 0c-22-26-35-59-34-93v-104l0 0c0-12 9-21 20-21z m438 125v-104l0 0c0-12 9-21 21-21h135l0 0c12 0 21 9 21 21v62 0c0 81-65 146-146 146h-41l0 0c-6 0-11-5-11-10 0-2 1-3 1-5l0 0c13-28 20-58 20-89z m-231-221c16-16 16-42 0-59-16-16-43-16-59 0-16 17-16 43 0 59 16 17 43 17 59 0m262-133l0 0c-149 0-271-122-271-271 0-150 122-271 271-271 150 0 271 121 271 271l0 0c0 149-121 271-271 271z m125-313h-62 0c-12 0-21-9-21-21 0 0 0 0 0 0v-62 0c0-23-19-42-42-42-23 0-41 19-41 42v62 0c0 12-10 21-21 21h-63 0c-23 0-41 19-41 42 0 23 18 42 41 42h63 0c11 0 21 9 21 20v63l0 0c0 23 18 42 41 42 23 0 42-19 42-42 0 0 0 0 0 0v-63l0 0c0-11 9-20 21-20h62 0c23 0 42-19 42-42 0-23-19-42-42-42z" horiz-adv-x="1000" />

<glyph glyph-name="dating-smartphone-chat" unicode="&#xe838;" d="M917 850h-500l0 0c-46 0-84-37-84-83 0 0 0 0 0 0v-292l0 0c0-46 38-83 84-83h104 0c11 0 21-10 21-21v-83l0 0c0-12 9-21 21-21 5 0 10 2 14 6l107 107 0 0c8 7 18 12 29 12h204l0 0c46 0 83 37 83 83v292h0c0 46-37 83-83 83z m-232-367l0 0c-10-9-26-9-37 0-44 34-148 125-148 196 0 90 102 126 149 53l0 0c6-9 19-12 29-6 3 2 5 4 6 6 47 73 149 37 149-53 0-71-104-162-148-196z m-143-279h-42 0c-11 0-21-9-21-21 0 0 0 0 0 0v-166 0c0-12-9-21-21-21h-354l0 0c-11 0-21 9-21 21 0 0 0 0 0 0v562l0 0c0 12 10 21 21 21h146l0 0c12 0 21 9 21 21v83l0 0c0 12-9 21-21 21 0 0 0 0 0 0h-125l0 0c-69 0-125-56-125-125 0 0 0 0 0 0v-625l0 0c0-69 56-125 125-125h313l0 0c69 0 125 56 125 125v208 0c0 12-10 21-21 21 0 0 0 0 0 0z" horiz-adv-x="1000" />

<glyph glyph-name="credit-card-1-alternate" unicode="&#xe839;" d="M875 704h-750l0 0c-69 0-125-56-125-125 0 0 0 0 0 0v-458l0 0c0-69 56-125 125-125h750l0 0c69 0 125 56 125 125v458 0c0 69-56 125-125 125z m-750-83h750 0c23 0 42-19 42-42v-41 0c0-12-10-21-21-21h-792l0 0c-11 0-21 9-21 21v41l0 0c0 23 19 42 42 42z m750-542h-750 0c-23 0-42 19-42 42 0 0 0 0 0 0v250l0 0c0 11 10 21 21 21h792 0c11 0 21-10 21-21v-250l0 0c0-23-19-42-42-42z m-542 167h-125l0 0c-23 0-41-19-41-42 0-23 18-41 41-41h125 0c23 0 42 18 42 41 0 23-19 42-42 42z" horiz-adv-x="1000" />

<glyph glyph-name="time-clock-circle-1-alternate" unicode="&#xe83a;" d="M500 850l0 0c-276 0-500-224-500-500 0-276 224-500 500-500 276 0 500 224 500 500l0 0c0 276-224 500-500 500z m0-917l0 0c-230 0-417 187-417 417 0 230 187 417 417 417 230 0 417-187 417-417l0 0c-1-230-187-416-417-417z m292 459h-275l-112 112 0 0c-17 16-43 16-59-1-16-16-16-41 0-57l125-125 0 0c7-8 18-13 29-13h292l0 0c23 0 41 19 41 42 0 23-18 42-41 42z m-557-5c20-21 20-53 0-74-21-20-54-20-74 0-20 21-20 53 0 74 20 20 53 20 74 0m302 302c20-20 20-53 0-74-20-20-53-20-74 0-20 21-20 54 0 74 21 20 54 20 74 0m0-604c20-21 20-54 0-74-20-20-53-20-74 0-20 20-20 53 0 74 21 20 54 20 74 0" horiz-adv-x="1000" />

<glyph glyph-name="religion-bible" unicode="&#xe83b;" d="M823 683v84 0c0 46-37 83-83 83h-521l0 0c-69 0-125-56-125-125 0 0 0 0 0 0v-750l0 0c0-69 56-125 125-125h604 0c46 0 83 37 83 83v667l0 0c0 46-37 83-83 83z m-458-375h0c-12 0-21 10-21 21 0 0 0 0 0 0v42l0 0c0 11 9 21 21 21h83 0c11 0 21 9 21 21v83l0 0c0 11 9 21 21 21h41 0c12 0 21-10 21-21v-83l0 0c0-12 9-21 21-21h83 0c12 0 21-10 21-21v-42 0c0-11-9-21-21-21h-83 0c-12 0-21-9-21-20 0 0 0 0 0 0v-209 0c0-11-9-21-21-21h-41 0c-12 0-21 10-21 21 0 0 0 0 0 0v209 0c0 11-10 20-21 20z m-146 459h500l0 0c11 0 21-10 21-21v-42 0c0-11-10-21-21-21h-500l0 0c-23 0-42 19-42 42 0 23 19 42 42 42z" horiz-adv-x="1000" />

<glyph glyph-name="messages-bubble-check" unicode="&#xe83c;" d="M729 454l0 0c59 0 116-15 167-45l0 0c2-1 6-2 9 0l0 0c3 1 5 4 6 7l0 0c4 20 6 39 6 59 0 207-206 375-459 375-252 0-458-168-458-375l0 0c2-93 42-181 111-244l-68-186 0 0c-4-11 2-23 12-27 5-2 11-2 16 0l243 102 0 0c23-7 46-11 70-15l0 0c3 0 6 1 9 3l0 0c2 2 3 5 3 8 0 2 0 3 0 5l0 0c0 184 149 333 333 333z m0-62l0 0c-149 0-271-122-271-271 0-150 122-271 271-271 150 0 271 121 271 271l0 0c0 149-121 271-271 271z m-141-278l0 0c12 12 32 12 44 0 0 0 0 0 0 0l63-63 121 161 0 0c10 14 29 17 43 7 14-11 17-30 7-44 0 0 0 0 0 0l-121-161 0 0c-21-28-60-34-88-13-2 2-5 4-7 6l-62 62 0 0c-12 13-12 32 0 45z" horiz-adv-x="1000" />

<glyph glyph-name="laptop-heart" unicode="&#xe83d;" d="M934 663v0c0 46-38 83-84 83h-708l0 0c-46 0-83-37-83-83 0 0 0 0 0 0v-529l0 0c0-7-6-13-13-13-1 0-1 0-1 0l0 0c-23 0-41-19-41-42 0-2 0-4 0-7l5-31 0 0c9-50 52-87 104-87h775l0 0c51 0 94 37 103 87l5 31 0 0c4 23-12 45-35 48-2 1-4 1-6 1h0c-12 0-21 9-21 21 0 0 0 0 0 0z m-84-521v0c0-12-9-21-20-21h-667 0c-12 0-21 9-21 21 0 0 0 0 0 0v500l0 0c0 11 9 21 21 21h667l0 0c11 0 20-10 20-21z m-380 103l0 0c8-8 21-8 29 0 1 0 1 0 1 0l142 148 0 0c41 41 41 107 1 149-41 41-107 41-149 0 0 0 0 0-1 0l-1-2 0 0c-4-4-10-4-14 0 0 0 0 0 0 0l-1 2 0 0c-41 40-108 40-149-1-8-7-14-17-19-27l0 0c-21-40-13-89 19-121z" horiz-adv-x="1000" />

<glyph glyph-name="gaming-first-place" unicode="&#xe83e;" d="M627 378l0 0c-5 2-11-1-13-6-1-1-1-3-1-4v-55l0 0c0-6 5-11 11-10 1 0 2 0 3 0l0 0c21 5 34 26 28 47-3 14-14 25-28 28z m353 45l0 0c19 18 25 47 15 72l0 0c-10 26-36 43-63 43h-204l0 0c-15 0-30 8-37 22l-130 253 0 0c-18 34-59 47-93 29-12-6-22-16-29-29l-130-253 0 0c-7-14-21-22-37-22h-203l0 0c-28 0-53-17-64-43l0 0c-10-25-4-54 15-72l176-172 0 0c11-11 15-28 10-43l-92-270 0 0c-9-25-1-54 20-71l0 0c21-19 52-22 77-9l270 139 0 0c12 6 26 6 38 0l270-139 0 0c26-13 56-10 77 9l0 0c21 17 29 46 20 71l-92 270 0 0c-5 15-1 32 10 43z m-501-269h-125 0c-17 0-31 14-31 31 0 18 14 32 31 32h11 0c11 0 20 9 20 21v114l0 0c0 4-2 8-5 9l0 0c-4 2-8 2-11-1l-17-12 0 0c-14-10-33-8-44 6-10 14-7 34 7 44l50 37 0 0c23 18 55 13 73-10 6-9 10-20 10-31v-156l0 0c0-12 9-21 21-21h10 0c17 0 31-14 31-32 0-17-14-31-31-31z m151 86l0 0c-10-2-17-11-17-21v-34 0c0-17-14-31-31-31-17 0-31 14-31 31v228l0 0c0 17 14 31 31 31h26l0 0c59 2 109-45 111-103l0 0c-2-51-39-93-89-101z" horiz-adv-x="1000" />

<glyph glyph-name="cog" unicode="&#xe83f;" d="M938 454h-78l0 0c-8 27-18 53-32 77l55 55 0 0c24 24 24 64 0 88 0 0 0 0 0 0l-59 59 0 0c-24 24-64 24-88 0l-55-55 0 0c-24 14-50 24-77 32v78 0c0 34-28 62-62 62 0 0 0 0 0 0h-84 0c-34 0-62-28-62-62 0 0 0 0 0 0v-78l0 0c-27-8-52-18-77-32l-55 55 0 0c-24 24-64 24-88 0l-59-59 0 0c-24-24-24-64 0-88 0 0 0 0 0 0l55-55 0 0c-14-24-24-50-32-77h-77l0 0c-35 0-63-28-63-62v-84l0 0c0-34 28-62 63-62h77l0 0c8-27 18-52 32-77l-55-55 0 0c-24-24-24-64 0-88l59-59 0 0c25-24 63-24 88 0l55 55 0 0c25-14 50-24 77-32v-78l0 0c0-34 28-62 62-62 0 0 0 0 0 0h84 0c34 0 62 28 62 62v78l0 0c27 8 53 18 77 32l55-55 0 0c24-25 64-25 88 0l59 59 0 0c24 24 24 64 0 88l-55 55 0 0c14 24 24 50 32 77h78l0 0c34 0 62 28 62 62 0 0 0 0 0 0v84 0c0 34-28 62-62 62z m-438-312l0 0c-115 0-208 93-208 208 0 115 93 208 208 208 115 0 208-93 208-208l0 0c0-115-93-208-208-208z" horiz-adv-x="1000" />

<glyph glyph-name="dating-rose" unicode="&#xe840;" d="M500 558c178 0 313 63 313 146 0 84-135 146-313 146-65 0-115-27-115-62 0-60 96-63 115-63h83l0 0c18 0 32-14 32-31 0-17-14-31-32-31h-83c-108 0-177 49-177 125 0 2 0 5 0 7l0 0c1 12-8 22-19 22-3 1-6 0-9-1-67-26-107-66-107-112 0-83 134-146 312-146z m302 7l0 0c-7 4-15 4-21 0l0 0c-86-48-183-72-281-69l0 0c-98-3-195 21-281 69l0 0c-9 6-22 3-28-7-2-3-3-7-3-11v-30l0 0c0-148 107-274 253-297l0 0c10-2 17-11 17-21v-109l0 0c0-5-4-10-10-10-2 0-5 1-7 2-5 5-10 9-16 13l0 0c-50 34-112 47-172 36l0 0c-5-1-10-4-13-9l0 0c-3-4-4-10-3-15l0 0c18-101 101-176 203-187l0 0c10-1 18-10 18-20v-8l0 0c0-23 19-42 42-42 23 0 42 19 42 42v8l0 0c0 10 8 19 19 21l0 0c101 10 184 86 203 186l0 0c1 5-1 11-4 15l0 0c-3 5-8 8-13 9l0 0c-60 11-122-2-172-36-5-4-11-8-16-13l0 0c-5-3-11-3-15 2-1 2-2 4-2 6v109l0 0c0 10 7 19 17 21l0 0c146 23 253 149 254 297v30l0 0c0 8-5 15-11 18z" horiz-adv-x="1000" />

<glyph glyph-name="single-neutral-actions" unicode="&#xe841;" d="M823 164c-22 45-96 72-198 110l-26 9 0 0c-3 4-5 9-6 13l0 0c-4 18-3 37 2 55l0 0c45 48 67 113 62 179 0 101-66 174-157 174-91 0-156-73-156-174l0 0c-6-65 15-130 60-179l0 0c6-18 7-36 3-55l0 0c-1-4-3-9-6-13l-26-9c-102-38-176-65-198-110l0 0c-20-46-31-96-31-147l0 0c0-12 9-21 21-21h666 0c12 0 21 9 21 21l0 0c0 51-11 101-31 147z" horiz-adv-x="1000" />

<glyph glyph-name="phone-action-heart-1" unicode="&#xe842;" d="M500 441v-362 0c0-23-19-41-42-41h-291 0c-23 0-42 18-42 41 0 0 0 0 0 0v459l0 0c0 23 19 41 42 41h208l0 0c6 0 11 5 11 11 0 2-1 4-2 5l0 0c-15 25-24 51-28 79l0 0c-1 6-5 9-10 9h-200l0 0c-58 0-104-46-104-104 0 0 0 0 0 0v-625l0 0c0-57 46-104 104-104h333l0 0c58 0 104 47 104 104v422l0 0c0 2-1 5-3 7l-62 65 0 0c-4 4-11 4-15 0-2-2-3-4-3-7z m335 407l0 0c-47 8-94-7-127-41l-20-20-21 20 0 0c-57 57-150 57-207 0-11-11-21-24-28-38l0 0c-28-57-17-125 27-169l213-223 0 0c8-8 22-8 30 0 0 0 0 0 1 0l212 222 0 0c58 58 58 151 0 208-21 22-50 36-80 41z" horiz-adv-x="1000" />

<glyph glyph-name="love-it-check" unicode="&#xe843;" d="M729 423l0 0c-149 0-271-121-271-271 0-149 122-271 271-271 150 0 271 122 271 271l0 0c0 150-121 271-271 271z m137-217l-121-161 0 0c-21-28-60-34-88-13-2 2-5 4-7 6l-62 63 0 0c-12 12-12 32 1 44 12 11 31 11 43 0l63-63 120 162 0 0c11 13 30 16 44 6 14-10 17-30 6-44z m-727 211l0 0c-58 56-72 143-35 215l0 0c27 54 78 92 138 101l0 0c61 10 123-10 167-54l63-58 0 0c16-15 41-15 57 0l65 59 0 0c43 43 105 63 165 53l0 0c60-10 111-47 139-101l0 0c27-54 25-118-6-169l0 0c-1-3-2-6-1-9l0 0c1-2 3-5 5-6l0 0c19-9 36-19 52-31l0 0c5-4 11-3 15 2 0 0 0 1 0 1l0 0c46 76 49 170 9 249l0 0c-70 135-235 188-370 119-24-12-46-28-66-47l-35-33-35 32 0 0c-62 62-151 90-237 75l0 0c-86-13-161-67-200-145l0 0c-53-104-32-229 50-311l296-320 0 0c4-4 11-5 15-1 2 2 3 5 3 8l3 88 0 0c0 3-1 6-3 8z" horiz-adv-x="1000" />

<glyph glyph-name="gift-box" unicode="&#xe844;" d="M542 350l0 0c0-11 9-21 21-21h354l0 0c40 0 73 33 73 73v83l0 0c0 41-33 73-73 73h-354l0 0c-12 0-21-9-21-20 0 0 0 0 0 0z m-386-21h302 0c12 0 21 10 21 21v188 0c0 11-9 20-21 20h-375l0 0c-40 0-72-32-73-73v-83l0 0c1-40 33-73 73-73z m323-83v0c0 11-9 21-21 21h-343 0c-12 0-21-10-21-21 0 0 0 0 0 0v-323l0 0c0-40 32-73 73-73h291 0c12 0 21 9 21 21z m84 21h0c-12 0-21-10-21-21 0 0 0 0 0 0v-375l0 0c0-12 9-21 21-21h270l0 0c41 0 73 33 73 73v323 0c0 11-9 21-21 21z m-19 304l0 0c10-11 25-15 39-11 49 12 168 44 204 80l0 0c48 48 48 126 0 174-48 48-126 48-174 0-32-32-62-128-81-204l0 0c-3-14 1-29 12-39z m128 184l0 0c15 16 40 17 56 1 16-15 17-40 1-56 0 0-1-1-1-1l0 0c-30-18-62-31-95-39l0 0c8 33 21 65 39 95z m-184-145c-18 76-48 172-80 204l0 0c-48 48-126 48-174 0-48-48-48-126 0-174 36-36 155-68 204-80l0 0c14-4 29 0 40 11l0 0c10 10 14 25 10 39z m-195 89v0l0 0c-16 15-16 41 0 56 16 16 41 16 56 0 0 0 0 0 0 0l0 0c18-30 31-62 39-95l0 0c-33 8-65 21-95 39z" horiz-adv-x="1000" />

<glyph glyph-name="dog" unicode="&#xe845;" d="M983 617l0 0c-9 21-34 31-55 21-21-9-30-34-21-55l0 0c24-54 0-117-54-140-9-5-19-7-29-9l0 0c-34 46-87 72-143 72h-185l0 0c-17-49-63-82-115-83l0 0c-67 1-121 56-121 123 0 4 0 7 1 10l11 110 0 0c1 17 16 30 33 29 17-2 30-16 29-34 0 0 0-1 0-2l-11-107 0 0c-3-32 20-61 53-65 17-2 34 4 47 16l0 0c17 22 21 52 11 78l0 0c-6 28-9 57-9 86l0 0c-3 62-53 110-115 110h-66l0 0c-62 6-121-27-147-83h-24l0 0c-41 0-73-33-73-73 0-8 1-16 4-23l16-48 0 0c7-24 27-42 51-48l68-17 0 0c8-2 14-9 15-18l54-419 0 0c-30-2-56-23-65-53l0 0c-6-12-11-26-14-40l0 0c1-18 16-32 34-32h164l0 0c17 0 30 13 31 30l8 200 0 0c1 11 10 20 21 20h212l0 0c13-7 28-12 43-16l6-109 0 0c-32-1-59-23-67-53-7-15-19-34-13-51l0 0c5-13 16-21 30-21h187l0 0c16 0 29 12 31 28 2 0 41 405 40 405l0 0c102 26 164 129 138 231-3 10-6 20-11 30z" horiz-adv-x="1000" />

<glyph glyph-name="dating-cup" unicode="&#xe846;" d="M478 849l0 0c-33 4-65-8-88-32l0 0c-4-5-9-7-15-7l0 0c-6 0-11 2-15 7l0 0c-23 24-55 36-88 32l0 0c-58-8-101-59-98-118 0-84 108-180 173-230v0l0 0c16-14 40-14 57 0 64 50 172 147 172 230l0 0c3 59-40 110-98 118z m272-416h-646l0 0c-23 0-41-18-41-41 0 0 0 0 0 0v-216l0 0c-3-173 131-316 302-326l0 0c173-5 317 130 322 303 1 3 1 6 1 10v166l0 0c0 12 9 21 20 21 0 0 0 0 0 0h42l0 0c58 0 104-46 104-104 0-40-23-77-59-94l0 0c-21-10-31-34-21-55 9-21 34-31 55-21 0 0 1 0 1 0l0 0c94 45 134 157 90 250-32 66-98 107-170 107z" horiz-adv-x="1000" />

<glyph glyph-name="calendar" unicode="&#xe847;" d="M896 725h-115 0c-5 0-10 5-10 10 0 0 0 0 0 0v73 0c0 23-19 42-42 42-23 0-41-19-41-42v-198 0c0-17-14-31-32-31v0h0c-17 0-31 14-31 31 0 0 0 0 0 0v94 0c0 12-9 21-21 21h-260l0 0c-6 0-11 5-11 10v73l0 0c0 23-18 42-41 42-23 0-42-19-42-42 0 0 0 0 0 0v-198 0c0-17-14-31-31-31v0h0c-17 0-31 14-31 31 0 0 0 0 0 0v94 0c0 12-10 21-21 21 0 0 0 0 0 0h-63 0c-46 0-83-37-83-83 0 0 0 0 0 0v-709l0 0c0-46 37-83 83-83h792 0c46 0 83 37 83 83v709l0 0c0 46-37 83-83 83z m-21-792h-750 0c-11 0-21 10-21 21 0 0 0 0 0 0v500l0 0c0 12 10 21 21 21h750 0c12 0 21-9 21-21v-500 0c0-11-9-21-21-21 0 0 0 0 0 0z" horiz-adv-x="1000" />

<glyph glyph-name="restaurant-eating-set" unicode="&#xe848;" d="M802 850h0c-17 0-31-14-31-31 0 0 0 0 0 0v-927l0 0c0-23 19-42 42-42 23 0 41 19 41 42v333l0 0c0 12 10 21 21 21h73l0 0c29 0 52 23 52 51 0 1 0 1 0 1v0c-3 300-101 552-198 552z m-312-417l0 0c-133 0-240-107-240-239 0-133 107-240 240-240 132 0 239 107 239 240l0 0c0 132-107 239-239 239z m0-395l0 0c-87 0-157 70-157 156 0 86 70 156 157 156 86 0 156-70 156-156l0 0c0-86-70-156-156-156z m-198 812h0c-23 0-42-19-42-42 0 0 0 0 0 0v-208l0 0c0-22-8-43-24-58l0 0c-4-4-10-4-15 0-2 2-3 4-3 7v259l0 0c0 23-18 42-41 42-23 0-42-19-42-42v-259l0 0c0-6-5-10-10-10-3 0-6 1-8 3l0 0c-15 15-24 36-24 58v208 0c0 23-18 42-41 42-23 0-42-19-42-42v-208l0 0c0-71 45-133 111-157l0 0c8-3 14-11 14-20v-531l0 0c0-23 19-42 42-42 23 0 41 19 41 42v531l0 0c0 9 6 17 14 20l0 0c67 24 111 86 111 157v208 0c0 23-18 42-41 42z" horiz-adv-x="1000" />

<glyph glyph-name="notes-add" unicode="&#xe849;" d="M729 392l0 0c-149 0-271-122-271-271 0-150 122-271 271-271 150 0 271 121 271 271l0 0c0 149-121 271-271 271z m104-302h-62 0c-6 0-11-5-11-11 0 0 0 0 0 0v-62 0c0-18-14-32-31-32-17 0-31 14-31 32v62 0c0 6-5 11-10 11h-63 0c-17 0-31 14-31 31 0 17 14 31 31 31h63 0c5 0 10 5 10 11v62l0 0c0 17 14 31 31 31 17 0 31-14 31-31 0 0 0 0 0 0v-62l0 0c0-6 5-11 11-11h62 0c18 0 32-14 32-31 0-17-14-31-32-31z m-333 562v-10l0 0c0-23 19-42 42-42 23 0 41 19 41 42v10l0 0c0 6 5 11 11 11h41 0c6 0 11-5 11-11v-196l0 0c0-5 4-10 10-10 1 0 2 0 2 0l0 0c20 5 41 8 61 8l0 0c6 0 10 5 10 10v199 0c0 46-37 83-83 83h-52 0c-6 0-11 5-11 10 0 0 0 0 0 0v52 0c0 23-18 42-41 42-23 0-42-19-42-42v-52 0c0-5-5-10-10-10h-63 0c-6 0-10 5-10 10 0 0 0 0 0 0v52 0c0 23-19 42-42 42-23 0-42-19-42-42v-52 0c0-5-4-10-10-10h-63 0c-5 0-10 5-10 10 0 0 0 0 0 0v52 0c0 23-19 42-42 42-23 0-41-19-41-42v-52 0c0-5-5-10-11-10h-73l0 0c-46 0-83-37-83-83 0 0 0 0 0 0v-542l0 0c0-46 37-83 83-83h311l0 0c6 0 10 4 10 10 0 0 0 1 0 2l0 0c-5 20-7 40-8 61l0 0c0 5-5 10-10 10h-292l0 0c-6 0-11 5-11 10 0 0 0 0 0 0v521l0 0c0 6 5 11 11 11h62l0 0c6 0 11-5 11-11 0 0 0 0 0 0v-10l0 0c0-23 18-42 41-42 23 0 42 19 42 42v10l0 0c0 6 5 11 11 11 0 0 0 0 0 0h62l0 0c6 0 10-5 10-11v-10l0 0c0-23 19-42 42-42 23 0 42 19 42 42v10l0 0c0 6 4 11 10 11h63l0 0c5 0 10-5 10-11 0 0 0 0 0 0z" horiz-adv-x="1000" />

<glyph glyph-name="love-gift-couple-box" unicode="&#xe84a;" d="M938 616h-157 0c-6 0-11 4-11 10 0 2 1 5 2 6l0 0c46 63 32 151-31 197-56 41-134 34-183-15l0 0c-21-26-37-56-48-87l0 0c-3-6-9-8-14-6-3 1-5 3-6 6l0 0c-11 31-27 61-48 87l0 0c-55 55-144 56-199 1-50-49-56-127-15-183l0 0c3-4 2-11-2-14-2-2-4-2-6-2h-157l0 0c-35 0-63-28-63-63v-104l0 0c0-23 19-42 42-42h21 0c11 0 20-9 20-20 0 0 0 0 0 0v-480l0 0c0-34 28-62 63-62h708 0c35 0 63 28 63 62v480l0 0c0 11 9 20 21 20h20l0 0c23 0 42 19 42 42v104 0c0 35-28 63-62 63 0 0 0 0 0 0z m-637 139l0 0c23 23 59 23 82 0l0 0c22-35 39-74 50-115l0 0c2-5-1-11-6-13-2 0-5-1-7 0l0 0c-41 10-82 25-119 47l0 0c-22 22-22 59 0 81z m22-264l0 0c46 0 83-38 83-84 0-46-37-83-83-83-46 0-83 37-83 83l0 0c0 46 37 84 83 84 0 0 0 0 0 0z m115-396v0c0-6-5-11-11-11h-24l0 0c-11 1-20-7-21-18l-18-139 0 0c0-5-5-9-10-9h-62l0 0c-6 0-10 4-11 9l-17 139 0 0c-1 11-10 19-21 18h-24 0c-6 0-11 5-11 11 0 0 0 0 0 0v83l0 0c0 63 52 115 115 115 63 0 115-52 115-115 0 0 0 0 0 0z m322 312v0c0-46-37-83-83-83-46 0-83 37-83 83 0 46 37 84 83 84l0 0c46 0 83-38 83-84z m-193 233l0 0c11 41 28 80 50 115l0 0c23 23 59 23 82 0 22-22 22-59 0-81l0 0c-37-22-77-37-119-47l0 0c-6-1-12 2-13 7-1 2-1 4 0 6z m225-545v0c0-6-5-11-11-11h-24l0 0c-11 1-20-7-21-18l-17-139 0 0c-1-5-6-9-11-9h-62l0 0c-5 0-10 4-10 9l-18 139 0 0c-1 11-10 19-21 18h-24 0c-6 0-10 5-10 11 0 0 0 0 0 0v83l0 0c0 63 51 115 114 115 63 0 115-52 115-115 0 0 0 0 0 0z" horiz-adv-x="1000" />

<glyph glyph-name="gaming-treasure-find" unicode="&#xe84b;" d="M729 392l0 0c-149 0-271-122-271-271 0-150 122-271 271-271 150 0 271 121 271 271l0 0c0 149-121 271-271 271z m168-206l-145-194 0 0c-26-35-76-42-111-15-3 2-6 4-8 7l-75 75 0 0c-17 16-17 43 0 59 16 16 42 16 59 0l54-55 0 0c8-8 21-8 29 0 1 1 2 2 2 3l128 170 0 0c14 18 40 22 58 8 19-14 22-40 9-58 0 0 0 0 0 0z m-741 372h-135 0c-12 0-21-9-21-20 0 0 0 0 0 0v-271l0 0c0-58 47-104 104-104h52 0c12 0 21 9 21 20v355 0c0 11-9 20-21 20z m698 0h-135 0c-12 0-21-9-21-20 0 0 0 0 0 0v-63l0 0c0-11 9-21 21-21 0 0 0 0 0 0l0 0c44 2 87-6 128-21l0 0c11-4 23 1 27 12 1 2 1 5 1 7v86 0c0 11-9 20-21 20 0 0 0 0 0 0z m-233-122l0 0c9 3 14 11 14 20v82 0c0 11-9 20-20 20h-52 0c-12 0-21-9-21-20 0 0 0 0 0 0v-42 0c0-58-47-104-104-104-58 0-105 46-105 104v42 0c0 11-9 20-20 20 0 0 0 0 0 0h-53l0 0c-11 0-20-9-20-20 0 0 0 0 0 0v-355l0 0c0-11 9-20 20-20h121l0 0c10 0 18 7 20 17l0 0c22 119 106 217 220 256z m-433 414h-42l0 0c-81 0-146-65-146-146 0 0 0 0 0 0v-62l0 0c0-12 9-21 21-21h135l0 0c12 0 21 9 21 21v104l0 0c0 31 7 61 20 89l0 0c2 5 0 12-5 14-2 1-3 1-4 1z m72-229h355l0 0c11 0 20 9 20 21v104l0 0c1 34-12 67-34 93l0 0c-8 7-18 11-29 11h-269l0 0c-11 0-21-4-29-11l0 0c-22-26-35-59-34-93v-104l0 0c0-12 9-21 20-21z m438 125v-104l0 0c0-12 9-21 21-21h135l0 0c12 0 21 9 21 21v62 0c0 81-65 146-146 146h-41l0 0c-6 0-11-5-11-10 0-2 1-3 1-5l0 0c13-28 20-58 20-89z m-231-221c16-16 16-42 0-59-16-16-43-16-59 0-16 17-16 43 0 59 16 17 43 17 59 0" horiz-adv-x="1000" />

<glyph glyph-name="dating-smartphone-man" unicode="&#xe84c;" d="M313 506l0 0c-92 0-167-74-167-166 0-92 75-167 167-167 92 0 166 75 166 167l0 0c0 92-74 166-166 166z m0-250l0 0c-46 0-84 38-84 84 0 8 1 15 4 23l0 0c0 3 3 6 6 7l0 0c3 1 6 1 9-1l0 0c41-24 88-34 135-27l0 0c4 0 7-1 9-3l0 0c2-2 4-6 3-9l0 0c-5-42-40-74-82-74z m672 513l0 0c-37 72-125 102-198 65-14-7-27-16-38-27l0 0c-11-11-29-11-40 0l0 0c-57 57-150 58-208 0-57-57-57-150 0-207l213-223 0 0c8-8 21-8 30 0 0 0 0 0 0 0l213 222 0 0c45 45 56 113 28 170z m-815-676l0 0c-7-9-6-22 2-29 4-4 9-6 14-6h253l0 0c12 0 21 10 21 21 0 5-2 10-5 14l0 0c-70 79-190 86-269 16-5-5-11-10-16-16z m413 299l0 0c-23 0-41-19-41-42 0 0 0 0 0 0v-312 0c0-12-10-21-21-21h-417 0c-11 0-21 9-21 21 0 0 0 0 0 0v604l0 0c0 46 38 83 84 83h187 0c23 0 42 19 42 42 0 23-19 41-42 41h-229l0 0c-69 0-125-56-125-125v-708l0 0c0-69 56-125 125-125h375l0 0c69 0 125 56 125 125v375 0c0 23-19 42-42 42 0 0 0 0 0 0z" horiz-adv-x="1000" />

<glyph glyph-name="currency-dollar" unicode="&#xe84d;" d="M756 179l0 0c0 82-50 156-127 186l-212 85 0 0c-39 16-58 60-42 99 11 28 39 47 70 47h209 0c35 0 63 28 63 63 0 34-28 62-63 62h-81 0c-6 0-10 5-10 11 0 0 0 0 0 0v56 0c0 34-28 62-63 62-34 0-62-28-62-62v-58l0 0c0-5-5-10-10-10l0 0c-110-9-192-105-183-215 6-77 55-143 126-170l212-85 0 0c39-16 58-60 42-99-11-28-39-47-70-47h-209 0c-35 0-63-28-63-63 0-34 28-62 63-62h81 0c6 0 11-5 11-11v-56l0 0c0-34 28-62 62-62 35 0 63 28 63 62v58l0 0c0 5 4 10 9 10l0 0c104 9 183 95 184 199z" horiz-adv-x="1000" />

<glyph glyph-name="award-star-head" unicode="&#xe84e;" d="M682 327l0 0c17 14 22 37 13 57l-47 107 0 0c-1 4 0 8 3 11l84 81 0 0c14 14 19 36 11 55l0 0c-7 18-26 30-46 30h-94l0 0c-4 0-8 2-10 6l-50 111 0 1 0 0c-9 17-27 27-46 27v0l0 0c-19 0-37-11-46-28l-50-111 0 0c-2-4-6-6-10-6h-94l0 0c-20 0-39-12-46-30l0 0c-8-19-3-41 12-55l83-81 0 0c3-3 4-7 3-11l-47-107 0 0c-8-20-3-43 13-57l0 0c16-15 40-18 59-7l118 66 0 0c3 2 7 2 10 0l118-66 0 0c19-11 43-8 59 7z m-294-245l0 0c-3 22-24 38-47 35-23-3-39-24-35-47l11-78 0 0c1-5-3-11-9-11l-77-11 0 0c-23-4-39-25-36-48 3-20 21-35 42-35 4 0-4-1 114 15l0 0c34 5 57 37 53 71 0 0 0 0 0 0z m-129-51l0 0c13 10 22 25 24 42l9 81 0 0c4 23-12 44-35 47-23 4-44-12-47-35 0 0 0-1 0-2l-6-50 0 0c-1-6-6-10-12-9 0 0 0 0 0 0l-50 6 0 0c-23 2-43-15-46-38-2-22 14-42 36-45l81-10 0 0c17-2 33 3 46 13z m-94 132l0 0c15 6 27 19 33 34l27 66 0 0c8 21-2 46-24 54-21 9-45-2-54-23 0 0 0 0 0 0l-15-37 0 0c-2-5-8-8-13-5l-37 14 0 0c-21 8-45-2-53-24-8-21 2-44 22-53l66-27 0 0c15-6 33-6 48 1z m-52 138l0 0c16 2 31 11 41 24l37 50 0 0c14 19 10 45-9 59-13 9-30 10-44 2l-10 80 0 0c-2 23-23 39-46 37-23-3-39-24-37-46l10-84 0 0c-17 6-36 0-47-14l0 0c-14-19-10-45 9-59l49-37 0 0c14-10 30-14 47-12z m656-331l-77 11 0 0c-5 0-9 6-9 11l12 78 0 0c3 23-13 44-36 47-23 3-44-13-47-35l-15-109 0 0c-5-34 18-66 52-71 0 0 1 0 1 0 116-16 109-16 114-16l0 0c23 1 41 19 41 42 0 21-15 38-36 41z m89 141l-50-6 0 0c-5-1-10 3-11 9 0 0 0 0 0 0l-6 50 0 0c-4 23-25 39-48 35-21-3-37-23-35-45l10-81 0 0c4-35 35-59 69-55l82 10 0 0c22 3 38 24 35 47-3 22-23 38-45 36z m60 155l-37-14 0 0c-5-3-11 0-13 5l-15 37 0 0c-9 21-33 32-54 23-22-8-32-33-24-54l27-66 0 0c13-32 49-47 81-35 0 0 0 1 0 1l66 26 0 0c21 9 31 34 22 55-9 20-32 30-53 22z m74 143l0 0c-11 14-30 20-47 14l10 84 0 0c2 22-14 43-37 46-23 2-43-14-46-37l-9-80 0 0c-21 12-46 4-57-16-8-14-7-32 3-45l37-50 0 0c21-27 60-33 88-12 0 0 0 0 0 0l49 37 0 0c19 14 23 40 9 59 0 0 0 0 0 0z" horiz-adv-x="1000" />

<glyph glyph-name="wine-glass" unicode="&#xe84f;" d="M773 797l0 0c-5 31-31 53-62 53h-422l0 0c-31 0-57-23-62-54l-39-295 0 0c0-1 0-3 0-5l0 0c0-150 106-279 253-307l0 0c10-2 17-10 17-20v-215 0c0-11-9-21-20-21h-63 0c-23 0-42-18-42-41 0-23 19-42 42-42h250 0c23 0 42 19 42 42 0 23-19 41-42 41h-62 0c-12 0-21 10-21 21 0 0 0 0 0 0v215l0 0c0 10 7 18 17 20l0 0c147 28 253 157 254 307l0 0c0 2-1 4-1 5z m-476-197l0 0c-3 0-6 1-8 4l0 0c-2 2-3 5-2 8l19 146 0 0c1 5 5 9 10 9h368l0 0c5 0 9-4 10-9l19-146 0 0c1-6-3-11-9-12 0 0 0 0-1 0z" horiz-adv-x="1000" />

<glyph glyph-name="religion-christianity" unicode="&#xe850;" d="M969 635v0c0 23-19 41-42 41-23 0-42-18-42-41l0 0c1-71-17-141-50-203l0 0c-3-5-9-7-14-5-1 1-2 2-3 2l0 0c-97 97-228 152-365 153-205 0-401-194-410-202l0 0c-16-17-16-43 0-59 9-9 205-202 410-202l0 0c137 0 268 55 365 152l0 0c4 4 11 4 15 0 1-1 1-2 2-3l0 0c33-62 51-132 51-203l0 0c0-23 18-41 41-41 23 0 42 18 42 41l0 0c0 99-28 196-82 280l0 0c-2 3-2 7 0 11l0 0c53 83 82 180 82 279z m-834-285c59 51 191 148 318 148l0 0c121 0 237-51 319-141l0 0c3-4 3-10 0-14l0 0c-82-90-198-141-319-141-127 0-259 98-318 148z" horiz-adv-x="1000" />

<glyph glyph-name="messages-people-user-bubble-circle" unicode="&#xe851;" d="M646 850c-195 0-354-131-354-292 0-142 125-262 291-286v-109l0 0c0-23 19-42 42-42 11 0 22 4 30 12l177 177 0 0c98 44 163 140 168 248 0 161-159 292-354 292z m143-468l0 0c-4-2-8-5-12-8l-110-111v46l0 0c0 22-18 41-40 42-141 7-252 98-252 207 0 115 122 209 271 209 149 0 271-94 271-209l0 0c-5-78-55-147-128-176z m3 270h-292l0 0c-17 0-31-14-31-31 0-17 14-31 31-31h292l0 0c17 0 31 14 31 31 0 17-14 31-31 31z m-84-125h-208l0 0c-17 0-31-14-31-31 0-17 14-31 31-31h208 0c18 0 32 14 32 31 0 17-14 31-32 31z m-562-219l0 0c63 0 115 52 114 115 0 63-51 115-114 115-64-1-115-52-115-115 0-63 52-115 115-115l0 0c-81 0-146-65-146-145v-84l0 0c0-11 9-21 21-21h34l0 0c5 0 10-4 10-9l18-180 0 0c1-11 10-19 21-19h84l0 0c10 0 19 8 20 19l18 180 0 0c1 5 5 9 11 9h34 0c11 0 21 10 21 21v84l0 0c0 80-65 145-146 145z" horiz-adv-x="1000" />

<glyph glyph-name="like-2" unicode="&#xe852;" d="M990 343l0 0c18 60-16 124-76 143-11 3-22 5-34 5h-232l0 0c-29 0-52 23-52 52 0 8 1 15 5 22l59 125 0 0c11 33 5 69-17 96l0 0c-36 44-101 51-145 15-7-6-13-13-19-20l-203-289 0 0c-10-14-26-22-43-22l0 0c-11 0-19-9-19-19 0 0 0 0 0 0v-472l0 0c0-8 4-15 11-19 155-74 206-84 331-84 15 0 97 1 127 1 112 0 186 64 227 199l80 265z m-839 127h-1l0 0c-5 30-31 52-61 52h-63 0c-11 0-21-9-21-21 0 0 0 0 0 0v-583l0 0c0-12 10-21 21-21h63 0c34 0 62 28 62 62z" horiz-adv-x="1000" />

<glyph glyph-name="gaming-ribbon-10" unicode="&#xe853;" d="M974 26l-125 216 0 0c-3 5-10 7-15 4-1-1-3-2-4-4l0 0c-34-68-104-109-180-106l0 0c-3 0-5-1-7-4l0 0c-12-12-26-23-41-31l0 0c-4-3-6-10-3-15l122-207 0 0c12-20 38-26 57-15 9 5 15 13 18 22l35 95 100-17 0 0c22-3 44 12 48 35 1 9 0 19-5 27z m-616 106l0 0c-2 3-5 4-8 4l0 0c-76-3-146 38-180 106l0 0c-2 3-5 5-9 5l0 0c-4 1-8-1-9-5l-125-216 0 0c-12-20-5-45 15-57 8-5 18-6 28-5l99 17 35-95 0 0c8-22 32-33 53-25 9 3 17 9 22 18l122 207 0 0c3 5 2 11-3 14l0 0c-15 9-28 20-40 32z m225 293l0 0c23 0 42 18 42 41v42 0c0 23-19 42-42 42-23 0-41-19-41-42v-42l0 0c0-23 18-41 41-41z m34-221l0 0c70-22 144 17 166 86 8 26 8 54 0 80l0 0c65 34 90 113 56 178-12 24-32 44-56 56l0 0c22 70-16 144-86 166-26 8-54 8-80 0l0 0c-33 65-113 90-178 56-24-12-44-32-56-56l0 0c-70 22-144-16-166-86-8-26-8-54 0-80l0 0c-65-33-90-113-56-178 12-24 32-43 56-56l0 0c-22-69 16-144 86-166 26-8 54-8 80 0l0 0c33-65 113-90 178-56 24 12 44 32 56 56z m-242 179h0c-11 0-21 9-21 21 0 11 10 21 21 21h21v125l-27-20 0 0c-9-7-22-5-29 4-7 9-5 22 4 29l27 20 0 0c13 10 29 11 44 4l0 0c14-7 23-21 23-37v-125h20 0c12 0 21-10 21-21 0-12-9-21-21-21z m125 125l0 0c0 46 37 83 83 83 46 0 84-37 84-83 0 0 0 0 0 0v-42 0c0-46-38-83-84-83-46 0-83 37-83 83z" horiz-adv-x="1000" />

<glyph glyph-name="dating-rose-1" unicode="&#xe854;" d="M623 291l0 0c3-3 8-4 13-2l0 0c86 43 141 130 142 226v190c0 83-120 145-278 145-158 0-278-62-278-145v-190l0 0c4-126 96-232 220-253l0 0c9-2 16-10 16-20v-350l0 0c0-23 19-42 42-42 23 0 42 19 42 42v41l0 0c0 12 9 21 21 21h41 0c92 0 167 75 167 167 0 0 0 0 0 0v62 0c0 12-9 21-21 21h-62l0 0c-50 0-96-21-128-59l0 0c-4-4-10-5-15-1-2 2-3 5-3 8v132l0 0c0 10 3 19 9 26l0 0c31 41 47 93 43 144l0 0c0 64-31 124-82 161l0 0c-7 5-15 7-24 8-125 2-203 50-203 82 0 34 84 83 215 83 31 0 64 1 64-31l0 0c0-17-14-30-31-30h-44l0 0c-9 0-17 3-24 10l0 0c-12 12-32 12-44 0-12-13-12-33 0-45l0 0c18-18 43-28 68-28h44l0 0c51 0 93 41 93 92l0 0c0 6 5 10 11 10 1 0 2 0 3 0 48-18 76-42 76-61 0-24-42-55-111-71l0 0c-6-2-9-7-8-13 0-1 1-3 2-4l0 0c37-46 57-104 57-163l0 0c3-52-9-105-34-150l0 0c-3-4-2-9 1-13z" horiz-adv-x="1000" />

<glyph glyph-name="conversation-chat-1" unicode="&#xe855;" d="M427 348l0 0c0 57 47 104 104 104h302 0c6 0 11 5 11 10v261 0c0 34-28 62-63 62h-708 0c-35 0-63-28-63-62 0 0 0 0 0 0v-417l0 0c0-34 28-62 63-62h62v-146l0 0c0-12 10-21 21-21 6 0 11 2 15 6l161 161h85 0c5 0 10 4 10 10z m521 41h-417l0 0c-23 0-41-18-41-41 0 0 0 0 0 0v-250l0 0c0-23 18-42 41-42h188l153-136 0 0c8-8 21-7 29 2 3 4 5 9 5 14v120h42 0c23 0 42 19 42 42v250 0c0 23-19 41-42 41 0 0 0 0 0 0z" horiz-adv-x="1000" />

<glyph glyph-name="single-neutral-actions.1" unicode="&#xe856;" d="M640 677c77-77 77-202 0-279-77-78-203-78-280 0-77 77-77 202 0 279 77 78 203 78 280 0m-140-379l0 0c-172 0-312-140-312-313l0 0c0-11 9-20 20-20h584 0c11 0 21 9 21 20l0 0c-1 173-140 313-313 313z" horiz-adv-x="1000" />

<glyph glyph-name="picture-polaroid-man" unicode="&#xe857;" d="M396 371l0 0c92 0 167 75 167 167 0 92-75 166-167 166-92 0-167-74-167-166l0 0c0-92 75-167 167-167 0 0 0 0 0 0z m0 83l0 0c-46 0-83 38-83 84 0 0 0 0 0 0l0 0c0 10 2 21 5 30l0 0c2 3 4 5 6 6l0 0c3 1 6 1 9 0l0 0c35-18 74-28 113-28 8 0 15 1 22 1l0 0c6 1 11-3 11-9 0 0 0 0 0 0l0 0c0-46-37-84-83-84z m203-215l0 0c-102 112-275 121-387 19-7-6-13-12-19-19l0 0c-8-8-7-22 1-29 4-4 9-6 14-6h376l0 0c11 0 20 10 20 21 0 5-1 10-5 14z m109-181l0 0c46 0 84 38 84 84v625 0c0 46-38 83-84 83h-625l0 0c-46 0-83-37-83-83 0 0 0 0 0 0v-625l0 0c0-46 37-84 83-84z m-625 688l0 0c0 11 10 21 21 21h584l0 0c11 0 20-10 20-21v-583 0c0-12-9-21-20-21h-584 0c-11 0-21 9-21 21 0 0 0 0 0 0z m917-281l0 0c4 46-30 87-76 91 0 0 0 0 0 0l-41 4 0 0c-23 2-44-14-47-37-3-23 14-43 37-46 0 0 1 0 2 0l21-2 0 0c11-1 20-11 19-23 0 0 0 0 0 0l-46-498 0 0c-1-11-11-20-22-19 0 0 0 0 0 0l-560 51 0 0c-23 3-44-13-47-36-3-23 14-44 36-46 1-1 2-1 3-1l581-53 0 0c46-4 87 30 91 76 0 0 0 0 0 0z" horiz-adv-x="1000" />

<glyph glyph-name="love-it-circle" unicode="&#xe858;" d="M500 850l0 0c-276 0-500-224-500-500 0-276 224-500 500-500 276 0 500 224 500 500l0 0c0 276-224 500-500 500z m213-528l-205-214 0 0c-4-4-11-4-15 0 0 0 0 0 0 0l-206 214 0 0c-50 49-51 129-2 179 48 50 128 51 178 2 1-1 1-2 2-2l28-28 0 0c2-2 4-3 7-3l0 0c3 0 5 1 7 3l28 28 0 0c49 49 129 49 178 0 49-50 49-129 0-179z" horiz-adv-x="1000" />

<glyph glyph-name="headphones-wave" unicode="&#xe859;" d="M882 362l0 0c-4 2-7 6-7 10v4 0c0 207-168 375-375 375-207 0-375-168-375-375v-4l0 0c0-4-3-8-7-10l0 0c-96-38-143-147-105-243 25-63 81-107 148-117l0 0c23-3 44 13 47 36 0 2 0 4 0 6v332l0 0c0 161 131 292 292 292 161 0 292-131 292-292 0 0 0 0 0 0v-341l0 0c0-19 15-34 34-34 1 0 2 0 2 0l0 0c104 9 180 100 171 203-6 71-51 132-117 158z m-142-205v0c0 23-19 41-42 41h-73l0 0c-16 0-30-8-37-22l-21-41 0 0c-2-5-8-7-14-5-2 2-4 4-5 7l-49 197 0 0c-6 22-28 36-51 30-12-3-21-11-27-22l-69-137 0 0c-2-4-5-6-9-6l-41-1 0 0c-23 0-42-18-42-41 0-23 19-42 42-42h0l73 1 0 0c16 0 30 9 37 23l21 40 0 0c2 6 9 8 14 5 2-1 4-4 5-7l49-197 0 0c6-22 28-35 51-30 12 3 22 11 27 22l69 138 0 0c2 3 5 5 9 5h41l0 0c23 0 42 19 42 42z" horiz-adv-x="1000" />

<glyph glyph-name="filter-2" unicode="&#xe85a;" d="M996 827l0 0c-7 14-22 23-38 23h-916l0 0c-23 0-42-19-42-42 0-9 3-17 8-25l367-492v-358l0 0c0-46 38-83 83-83l0 0c18 0 36 6 50 17l84 62 0 0c21 16 33 41 33 67v295l367 492 0 0c9 13 11 30 4 44z m-770-69l164-218 0 0c3-4 4-8 4-13v-52 0c0-11-9-21-21-21-6 0-13 3-16 9l-206 270 0 0c-7 10-5 23 4 30 4 2 8 4 13 4h41l0 0c7 0 13-3 17-9z" horiz-adv-x="1000" />

<glyph glyph-name="dating-flowers-vase" unicode="&#xe85b;" d="M637 189l0 0c-21 9-31 32-23 53l15 38 0 0c4 10-1 23-11 27-3 1-6 1-8 1h-314l0 0c-11 0-21-9-21-20 0-3 1-6 2-8l15-38 0 0c8-21-2-44-23-53l0 0c-90-32-150-118-149-214l0 0c-1-31 8-61 25-87l0 0c15-24 42-38 70-38h476l0 0c28 0 55 14 70 38l0 0c17 26 26 56 25 87l0 0c1 96-59 181-149 214z m-348 468c12-13 12-32 0-45-12-12-32-12-44 0-13 13-13 32 0 45 12 12 32 12 44 0m469 0c12-13 12-32 0-45-12-12-32-12-44 0-12 13-12 32 0 45 12 12 32 12 44 0m182 67v0l0 0c-21 34-61 51-100 45l0 0c-5-1-10 2-11 7l0 0c-13 52-66 84-118 71-35-9-62-36-71-71l0 0c-2-5-6-8-11-7l0 0c-39 6-79-11-100-45l0 0c-21-37-16-83 12-116l0 0c7-8 6-20-1-28l0 0c-51-57-80-130-82-207l0 0c-1-11 7-21 18-23 1 0 2 0 3 0h42l0 0c10 0 19 8 21 19l0 0c2 34 10 68 23 101l0 0c2 5 8 8 13 5 2 0 3-1 4-3l0 0c3-3 5-5 8-8l0 0c18-18 42-27 67-27l0 0c26 0 51 9 71 26l0 0c4 3 9 3 13 0l0 0c40-36 100-35 139 1l0 0c28 29 35 72 19 109l0 0c-2 5 0 10 4 12l0 0c47 29 64 90 37 139z m-74-88l0 0c-7-5-16-7-25-8l0 0c-13 0-25-9-28-22l0 0c-4-12 0-26 11-34l0 0c2-1 4-3 5-5l0 0c18-14 21-40 7-59l0 0c-18-14-44-11-59 7l0 0c-6 6-10 13-13 20l0 0c-5 17-23 25-40 19-8-3-15-10-19-19l0 0c-2-7-6-14-12-20l0 0c-15-18-41-21-59-7l0 0c-14 19-12 45 6 59l0 0c2 2 4 4 6 5l0 0c14 11 16 30 6 44-6 7-14 12-24 12l0 0c-9 1-17 3-25 8l0 0c-21 10-30 35-20 56l0 0c7 10 18 16 31 16l0 0c10-1 19-3 28-9l0 0c2-1 5-3 7-5l0 0c13-11 33-9 44 4 7 8 9 18 6 28l0 0c-1 5-2 10-2 15l0 0c-2 23 14 44 37 47l0 0c23-3 39-24 37-47l0 0c0-5-1-10-2-15l0 0c-5-17 5-34 21-39 10-3 22-1 30 7l0 0c2 2 5 4 8 6l0 0c18 13 45 10 59-8l0 0c9-21 0-46-21-56z m-746-172l0 0c39-36 99-37 139-1l0 0c4 3 9 3 13 0l0 0c9-7 15-17 18-27 7-24 13-47 19-70l0 0c2-9 10-16 20-16h42l0 0c12 0 21 9 21 21 0 1 0 3 0 4-4 16-8 33-12 50l0 0c-3 9 1 19 10 23l0 0c7 5 15 10 21 16l0 0c27 29 35 72 19 109l0 0c-2 4 0 10 4 12l0 0c47 29 64 90 37 139l0 0c-21 34-60 51-99 45l0 0c-5-1-10 2-12 7l0 0c-12 43-50 73-94 74l0 0c-44-1-83-31-94-74l0 0c-2-5-7-8-12-7l0 0c-39 6-78-11-100-45v0l0 0c-26-48-10-109 37-139l0 0c4-2 6-7 4-12l0 0c-16-37-9-80 19-109z m-6 228l0 0c14 18 40 21 58 8l0 0c3-2 6-4 9-6l0 0c12-12 32-11 44 2 7 8 9 19 6 30l0 0c-1 5-2 10-2 15l0 0c-2 23 14 44 37 47l0 0c23-4 39-24 37-47l0 0c0-5-1-10-2-15l0 0c-5-16 5-34 22-38 10-3 20 0 28 6l0 0c2 2 5 4 7 6l0 0c19 13 45 10 59-8l0 0c10-21 1-46-20-56l0 0c-8-5-17-7-25-8l0 0c-18-1-31-15-30-32 0-10 5-18 12-24l0 0c2-1 4-3 6-5l0 0c18-14 21-40 7-59l0 0c-18-14-45-11-59 7l0 0c-6 6-10 13-13 20l0 0c-6 17-23 25-40 19-9-3-16-10-19-19l0 0c-2-7-7-14-12-20l0 0c-15-18-41-21-59-7l0 0c-15 18-12 45 6 59l0 0c2 2 4 4 6 5l0 0c14 11 16 30 6 44-6 7-14 12-24 12l0 0c-9 1-17 3-25 8l0 0c-21 10-30 35-20 56z" horiz-adv-x="1000" />

<glyph glyph-name="calendar-favorite-heart-1" unicode="&#xe85c;" d="M104 163h0c-11 0-21 9-21 20 0 0 0 0 0 0v355l0 0c0 11 10 20 21 20h563l0 0c11 0 21-9 21-20v-164l0 0c14-6 28-14 41-23l0 0c13 9 27 17 42 23v351 0c0 23-19 42-42 42h-104 0c-6 0-10 4-10 10 0 0 0 0 0 0v42 0c0 17-14 31-32 31-17 0-31-14-31-31v-156 0c0-18-14-32-31-32-17 0-31 14-31 32v83 0c0 11-10 21-21 21h-177 0c-6 0-11 4-11 10 0 0 0 0 0 0v42 0c0 17-14 31-31 31-17 0-31-14-31-31v-156 0c0-18-14-32-31-32-18 0-32 14-32 32v83 0c0 11-9 21-21 21h-93 0c-23 0-42-19-42-42 0 0 0 0 0 0v-562l0 0c0-46 37-84 83-84h340l0 0c-14 26-23 54-26 84z m773 164l0 0c-47 8-95-7-128-41l-20-20-20 20 0 0c-57 58-150 57-208 0-11-11-20-24-27-38l0 0c-28-56-17-125 27-169l213-223 0 0c8-8 21-8 30 0 0 0 0 0 0 0l213 222 0 0c45 45 56 113 28 170l0 0c-21 42-62 72-108 79z" horiz-adv-x="1000" />

<glyph glyph-name="screen-1-alternate" unicode="&#xe85d;" d="M938 850h-875 0c-35 0-63-28-63-62 0 0 0 0 0 0v-688l0 0c0-34 28-62 63-62h385 0c6 0 10-5 10-11v-83 0c0-6-4-11-10-11h-135 0c-23 0-42-18-42-41 0-23 19-42 42-42h375 0c23 0 41 19 41 42 0 23-18 41-41 41h-136 0c-6 0-10 5-10 11 0 0 0 0 0 0v83l0 0c0 6 4 11 10 11h386 0c34 0 62 28 62 62v688h0c0 34-28 62-62 62z m-21-625v0c0-11-10-21-21-21h-792 0c-11 0-21 10-21 21 0 0 0 0 0 0v521l0 0c0 11 10 21 21 21h792l0 0c11 0 21-10 21-21z" horiz-adv-x="1000" />

<glyph glyph-name="notes-edit" unicode="&#xe85e;" d="M475 104l0 0c3 5 2 11-3 15-1 1-3 2-6 2h-372l0 0c-6 0-11 4-11 10 0 0 0 0 0 0v521l0 0c0 6 5 11 11 11h62l0 0c6 0 11-5 11-11 0 0 0 0 0 0v-10l0 0c0-23 18-42 41-42 23 0 42 19 42 42v10l0 0c0 6 5 11 10 11h63l0 0c6 0 10-5 10-11 0 0 0 0 0 0v-10l0 0c0-23 19-42 42-42 23 0 42 19 42 42v10l0 0c0 6 4 11 10 11h63 0c5 0 10-5 10-11v-10l0 0c0-23 19-42 42-42 23 0 41 19 41 42v10l0 0c0 6 5 11 11 11h41 0c6 0 11-5 11-11v-346l0 0c0-6 5-11 10-11 3 0 6 1 8 3l62 63 0 0c2 2 3 4 3 7v295 0c0 46-37 83-83 83h-52l0 0c-6 0-11 4-11 10 0 0 0 0 0 0v52 0c0 23-18 42-41 42-23 0-42-19-42-42v-52l0 0c0-5-5-10-10-10 0 0 0 0 0 0h-63l0 0c-6 0-10 4-10 10 0 0 0 0 0 0v52l0 0c0 23-19 42-42 42-23 0-42-19-42-42v-52l0 0c0-5-4-10-10-10 0 0 0 0 0 0h-63l0 0c-5 0-10 4-10 10 0 0 0 0 0 0v52l0 0c0 23-19 42-42 42-23 0-41-19-41-42v-52l0 0c0-5-5-10-11-10 0 0 0 0 0 0h-73 0c-46 0-83-37-83-83 0 0 0 0 0 0v-542l0 0c0-46 37-83 83-83h339l0 0c3 0 7 1 9 4z m485 263l0 0c-46 35-111 30-150-11l-275-274 0 0c-4-5-4-11 0-15 0 0 0 0 0 0l140-140 0 0c4-4 11-4 15 0 0 0 0 0 0 0l278 278 0 0c43 43 43 112 0 155-3 2-5 5-8 7z m-457-356l0 0c-4 4-11 4-15 0-2-1-3-3-3-5l-26-131 0 0c-2-11 5-22 16-25 1 0 3 0 4 0l0 0c2 0 3 0 4 0l131 27 0 0c6 1 10 6 9 12-1 2-2 4-3 5z" horiz-adv-x="1000" />

<glyph glyph-name="love-heart-balloons" unicode="&#xe85f;" d="M401 103l0 0c-9-3-17-5-26-5l0 0c-10 0-20 2-30 6l0 0c-5 2-11 0-13-6-1-1-1-2-1-3-6-73-21-147-48-174l0 0c-17-16-17-42-1-59 16-16 42-17 59-1 0 0 1 1 1 1 49 49 67 150 73 230l0 0c0 6-4 11-10 11-2 0-3 0-4 0z m552 245l0 0c-29 24-69 31-106 20l0 0c-10-4-21 2-24 12l0 0c-8 24-23 44-44 58l0 0c-10 7-23 4-29-6 0 0 0 0 0 0l0 0c-44-67-96-127-155-181l0 0c-6-5-8-13-6-20l0 0c15-62 39-122 68-178l0 0c4-7 11-11 19-11l0 0c1 0 1 0 2 0 10 1 250 32 304 138l0 0c34 56 21 127-29 168z m-372 498l0 0c-72 15-146-14-190-73l0 0c-7-9-20-11-29-4-1 1-2 3-3 4l0 0c-44 59-118 88-190 73l0 0c-104-23-177-120-169-227 0-204 348-445 363-455l0 0c7-5 17-5 24 0 15 10 363 251 363 455l0 0c8 107-64 204-169 227z" horiz-adv-x="1000" />

<glyph glyph-name="gaming-trophy-10" unicode="&#xe860;" d="M688 15v0c-60 5-96 27-103 112l0 0c-1 11-11 20-23 19 0 0-1 0-1 0l0 0c-40-6-81-6-122 0l0 0c-11 1-22-7-23-18 0-1 0-1 0-1-8-86-44-107-103-112l0 0c-46-5-79-46-74-91 5-42 40-74 82-74h358l0 0c46 0 82 37 82 83 0 42-32 77-74 82z m-73 658l0 0c-29 0-52-23-52-52 0 0 0 0 0 0v-83l0 0c0-29 23-53 52-53 28 0 52 24 52 53v83l0 0c0 29-24 52-52 52z m302-52h-11l0 0c-11 0-20 9-21 21 0 1 1 1 1 2l0 0c6 48 9 95 10 143l0 0c0 34-27 63-62 63 0 0 0 0-1 0h-666l0 0c-35 0-63-28-63-62 0-1 0-1 0-1l0 0c1-48 4-95 10-143l0 0c2-11-6-21-18-23-1 0-2 0-3 0h-10l0 0c-46 0-83-37-83-83 0 0 0 0 0 0v-105l0 0c0-87 54-165 136-195l0 0c22-8 46 3 54 25 8 21-3 45-25 53 0 0 0 0 0 0l0 0c-49 18-82 65-82 117v84l0 0c0 11 10 21 21 21h15l0 0c9 0 17-7 20-16 56-205 182-318 361-318 179 0 305 113 362 318l0 0c2 9 10 16 20 16h14 0c11 0 21-10 21-21 0 0 0 0 0 0v-84l0 0c0-52-33-99-82-117l0 0c-22-8-33-32-25-53 8-22 32-33 54-25 0 0 0 0 0 0l0 0c82 30 136 108 136 195v105 0c0 46-37 83-83 83z m-469-198h-125 0c-17 0-31 14-31 31 0 17 14 31 31 31h11 0c11 0 21 10 21 21v118l0 0c0 6-5 11-11 11-2 0-5-1-7-3l-12-12 0 0c-13-12-33-12-45 0-11 12-11 32 0 44l56 55 0 0c10 11 25 17 40 17l0 0c23 0 41-19 41-42v-188l0 0c0-11 10-20 21-20h10 0c17 0 31-14 31-32 0-17-14-31-31-31z m281 115v0c0-64-51-115-114-115-64 0-115 51-115 115v83l0 0c0 63 51 114 115 114 63 0 114-51 114-114 0 0 0 0 0 0z" horiz-adv-x="1000" />

<glyph glyph-name="dating-smartphone-woman" unicode="&#xe861;" d="M985 769l0 0c-37 72-125 102-198 65-14-7-27-16-38-27l0 0c-11-11-29-11-40 0l0 0c-57 57-150 58-208 0-57-57-57-150 0-207l213-223 0 0c8-8 21-8 30 0 0 0 0 0 0 0l213 222 0 0c45 45 56 113 28 170z m-815-676l0 0c-7-9-6-22 2-29 4-4 9-6 14-6h253l0 0c12 0 21 10 21 21 0 5-2 10-5 14l0 0c-70 79-190 86-269 16-5-5-11-10-16-16z m413 299l0 0c-23 0-41-19-41-42 0 0 0 0 0 0v-312 0c0-12-10-21-21-21h-417 0c-11 0-21 9-21 21 0 0 0 0 0 0v604l0 0c0 46 38 83 84 83h187 0c23 0 42 19 42 42 0 23-19 41-42 41h-229l0 0c-69 0-125-56-125-125v-708l0 0c0-69 56-125 125-125h375l0 0c69 0 125 56 125 125v375 0c0 23-19 42-42 42 0 0 0 0 0 0z m-86-208l0 0c17 15 18 41 3 59-5 5-21 28-21 97v0c0 92-74 166-166 166-92 0-167-74-167-166 0-69-16-92-21-97l0 0c-15-18-14-44 3-59 17-16 44-14 59 3 0 0 0 0 0 0l0 0c5 5 9 10 12 15l0 0c2 3 4 5 7 5l0 0c3 1 6 0 8-2l0 0c59-43 138-43 197 0l0 0c5 4 11 3 15-2 0 0 0 0 0-1l0 0c4-5 7-10 12-15l0 0c15-17 42-19 59-3 0 0 0 0 0 0z m-184 72l0 0c-40 0-74 28-82 66l0 0c-1 6 2 11 8 12 0 0 0 0 0 0l0 0c10 2 20 6 30 10l0 0c14 7 26 17 35 29l0 0c4 4 10 5 15 2 1-1 1-1 2-2l0 0c9-12 21-22 35-29l0 0c10-4 20-8 30-10l0 0c6-1 9-6 8-12 0 0 0 0 0 0l0 0c-8-38-42-66-81-66z" horiz-adv-x="1000" />

<glyph glyph-name="dating-calendar" unicode="&#xe862;" d="M528 332l-13-14 0 0c-8-8-22-8-30 0 0 0 0 0 0 0l-13 14 0 0c-38 41-103 43-144 5-42-38-44-103-6-144 2-2 4-4 6-5l157-165 0 0c8-8 21-8 29 0 1 0 1 0 1 0l158 165 0 0c39 39 39 104 0 144-40 40-105 40-145 0z m389 393h-125 0c-12 0-21 9-21 21 0 0 0 0 0 0v62 0c0 23-19 42-42 42-23 0-41-19-41-42v-198 0c0-17-14-31-32-31-17 0-31 14-31 31v94 0c0 12-9 21-21 21h-250 0c-11 0-21 9-21 21 0 0 0 0 0 0v62 0c0 23-18 42-41 42-23 0-42-19-42-42v-198 0c0-17-14-31-31-31-17 0-31 14-31 31v94 0c0 12-10 21-21 21h-84 0c-46 0-83-37-83-83 0 0 0 0 0 0v-709l0 0c0-46 37-83 83-83h834l0 0c46 0 83 37 83 83v709h0c0 46-37 83-83 83z m0-771v0c0-11-10-21-21-21h-792 0c-11 0-21 10-21 21 0 0 0 0 0 0v500l0 0c0 12 10 21 21 21h792 0c11 0 21-9 21-21z" horiz-adv-x="1000" />

<glyph glyph-name="award-trophy-star" unicode="&#xe863;" d="M917 621h-29l0 0c7 48 11 97 12 145l0 0c1 45-34 83-79 84-1 0-2 0-2 0h-637l0 0c-45 0-82-37-82-82 0 0 0-1 0-1l0 0c1-49 5-98 12-146h-29l0 0c-46 0-83-38-83-84 0 0 0 0 0 0v-104l0 0c0-87 54-165 136-195l0 0c22-8 46 3 54 25 8 21-3 45-25 53 0 0 0 0 0 0l0 0c-49 18-81 65-82 117v105h45c57-231 224-320 366-320 234 0 343 180 378 320h45v-105l0 0c0-52-33-99-82-117l0 0c-22-8-33-32-25-53 8-22 32-33 54-25 0 0 0 0 0 0l0 0c82 30 136 108 136 195v105 0c0 46-37 83-83 83z m-513-217l0 0c-11-6-24-3-30 8-4 6-4 13-2 19l38 86 0 0c1 4 0 8-3 11l-67 66 0 0c-8 8-9 21-2 29 5 5 10 7 17 7h76l0 0c4 0 8 2 10 6l40 86 0 0c5 11 19 15 30 10 4-2 7-6 9-10l40-86 0 0c2-4 5-6 9-6h77l0 0c11 0 21-8 21-20 1-6-2-12-6-16l-68-66 0 0c-3-3-4-7-2-11l37-86 0 0c5-11 0-24-11-28-7-3-14-2-20 1l-91 52 0 0c-4 1-8 1-11 0z m90-249l0 0c-21 0-43 2-65 5l0 0c-5 1-11-3-12-9 0 0 0-1 0-1 4-140-96-135-104-135l0 0c-45-5-78-46-73-91 4-42 39-74 81-74h359l0 0c45 0 81 37 81 83 0 0 0 0 0 0l0 0c0 42-32 78-73 82-64 6-111 33-108 135l0 0c1 3-1 6-3 8l0 0c-2 2-5 3-8 3l0 0c-25-4-50-6-75-6z" horiz-adv-x="1000" />

<glyph glyph-name="religion-cross" unicode="&#xe864;" d="M688 490h-94 0c-12 0-21 9-21 20 0 0 0 0 0 0v94l0 0c0 29-23 52-52 52h-42l0 0c-29 0-52-23-52-52v-94 0c0-11-9-20-21-20h-93l0 0c-29 0-52-24-53-52v-42l0 0c0-29 24-52 53-52h93 0c12 0 21-10 21-21v-240l0 0c0-28 23-52 52-52h42l0 0c29 0 52 24 52 52v240l0 0c0 11 9 21 21 21h94l0 0c28 0 52 23 52 52v42l0 0c0 28-24 52-52 52z m-405 154l0 0c23 0 42 18 42 41 0 9-3 18-9 25l-50 67 0 0c-13 18-40 22-58 8-18-14-22-40-8-58l50-67 0 0c8-10 20-16 33-16z m-170-198l0 0c5-1 9-2 14-2l0 0c23 0 41 19 41 42 0 18-12 33-28 39l-79 26 0 0c-22 8-46-4-53-26-7-22 4-46 26-53 0 0 0 0 0 0z m3-215l-72-43 0 0c-20-12-27-37-16-57 11-20 37-27 57-16 1 0 1 1 2 1l72 43 0 0c20 12 26 38 14 58-11 19-37 26-57 14 0 0 0 0 0 0z m202-181l0 0c-18 13-44 9-58-9 0 0 0-1 0-1l-48-68 0 0c-14-18-10-44 8-58 18-14 44-10 58 8 1 1 1 1 2 2l48 68 0 0c14 18 9 44-9 58 0 0 0 0-1 0z m474 735l0 0c-18 14-44 10-58-8l-50-67 0 0c-14-18-10-44 8-58 19-14 45-10 59 8 0 0 0 0 0 0l50 67 0 0c13 18 10 45-9 58 0 0 0 0 0 0z m200-260l0 0c-7 22-31 34-53 26 0 0 0 0 0 0l-80-26 0 0c-22-8-34-31-26-53 7-22 31-34 52-27l81 27 0 0c22 8 33 31 26 53 0 0 0 0 0 0z m-36-337l-72 43 0 0c-20 12-45 5-57-14-12-20-6-46 14-58l72-43 0 0c7-4 14-6 21-6l0 0c23 0 42 19 42 42 0 14-7 28-20 36z m-216-148l0 0c-14 19-40 23-58 10-19-14-23-40-10-58 0 0 0 0 0 0l49-68 0 0c12-19 38-24 57-12 19 13 24 39 12 58-1 1-1 1-2 2z" horiz-adv-x="1000" />

<glyph glyph-name="mobile-phone-2" unicode="&#xe865;" d="M708 849h-416l0 0c-69 0-125-56-125-125 0 0 0 0 0 0v-748l0 0c0-69 56-125 125-125h416 0c69 0 125 56 125 125v748h0c0 69-56 125-125 125z m-208-935h0c-23 0-42 19-42 42 0 23 19 41 42 41 23 0 42-18 42-41l0 0c0-23-19-42-42-42z m250 187v0c0-23-19-41-42-41h-416 0c-23 0-42 18-42 41 0 0 0 0 0 0v602l0 0c0 23 19 41 42 41h416l0 0c23 0 42-18 42-41z" horiz-adv-x="1000" />

<glyph glyph-name="like-2-alternate" unicode="&#xe866;" d="M995 340l0 0c20 66-17 136-84 156-11 3-24 5-36 5h-204l0 0c-23 0-42 19-42 42 0 3 1 7 2 11l36 139 0 0c16 60-20 122-80 138-46 12-94-6-121-44l-204-289 0 0c-8-11-21-18-34-18h-86l0 0c-9 25-32 42-59 42h-62 0c-12 0-21-9-21-21 0 0 0 0 0 0v-583l0 0c0-12 9-21 21-21h62 0c35 0 63 28 63 62v27c213-108 260-121 405-121 14 0 97 1 127 1 116 0 194 68 237 207l79 265c0 1 0 1 1 2z m-80 24l0-1-80-266c-32-103-79-147-157-147-31 0-57 0-81-1-174-2-191-2-440 124l0 0c-7 4-11 11-11 19v284l0 0c0 12 9 21 21 21h61l0 0c40 0 78 20 102 53l204 289 0 0c10 13 29 16 43 5 1-1 3-2 4-4l0 0c6-7 8-17 6-26l-37-139 0 0c-18-67 22-135 89-153 10-3 21-4 32-4h204l0 0c23 0 42-19 42-42 0-4-1-8-2-12z" horiz-adv-x="1000" />

<glyph glyph-name="gaming-ribbon-100" unicode="&#xe867;" d="M974 47l-100 173 0 0c-2 3-5 5-9 5l0 0c-4 0-7-2-9-5l0 0c-51-76-125-135-211-166l0 0c-6-2-9-8-7-13 0-1 1-1 1-2l82-139 0 0c12-20 38-27 57-15 9 5 15 13 18 22l35 95 100-17 0 0c16-2 32 5 41 18l0 0c9 13 10 30 2 44z m-829 174l0 0c-3 5-10 6-15 3-1-1-2-2-3-3l-101-174 0 0c-11-20-4-45 16-57 8-5 18-6 27-5l100 17 35-95 0 0c8-22 32-33 53-25 9 3 17 9 22 18l82 139 0 0c2 3 2 6 1 9l0 0c-1 3-3 6-6 7l0 0c-87 31-161 89-211 166z m355 287l0 0c-23 0-42-19-42-42 0 0 0 0 0 0v-41l0 0c0-23 19-42 42-42 23 0 42 19 42 42v41l0 0c0 23-19 42-42 42z m250-83v41 0c0 23-19 42-42 42-23 0-41-19-41-42v-41l0 0c0-23 18-42 41-42 23 0 42 19 42 42z m115 31v0c0 201-163 365-364 365-202 0-365-164-365-365 0-201 163-365 365-365l0 0c201 1 364 164 364 365z m-615-94l0 0c0 12 9 21 21 21h21v125l-27-20 0 0c-9-7-22-5-29 4-7 10-5 23 4 29 0 0 0 0 0 0l27 20 0 0c12 10 29 12 43 4l0 0c15-7 23-21 23-37v-125h21 0c12 0 21-9 21-21 0-11-9-21-21-21h-83l0 0c-12 0-21 10-21 21 0 0 0 0 0 0z m542 63v0c0-46-38-84-84-84-46 0-83 38-83 84v41l0 0c0 46 37 84 83 84 46 0 84-38 84-84 0 0 0 0 0 0z m-292-84l0 0c-46 0-83 38-83 84 0 0 0 0 0 0v41l0 0c0 46 37 84 83 84 46 0 83-38 83-84 0 0 0 0 0 0v-41l0 0c0-46-37-84-83-84 0 0 0 0 0 0z" horiz-adv-x="1000" />

<glyph glyph-name="dating-rose-vase-(1)" unicode="&#xe868;" d="M620 240l0 0c-31 12-53 39-59 72l0 0c-2 10-10 17-20 17h-129l0 0c-10 0-19-7-20-17l0 0c-6-33-29-60-59-72-89-36-148-104-148-182 0-115 130-208 291-208 161 0 292 93 292 208 0 78-60 146-148 182z m97 585l0 0c-30 15-63 24-97 25h0l0 0c-28 3-56-10-71-34-21-43 19-103 93-140l0 0c30-16 63-25 96-26l0 0c29-3 57 10 72 35 21 42-19 102-93 140z m-288-409l0 0c9-2 16-11 14-21l0 0c-2-11 6-22 17-24 1 0 2 0 4 0h42l0 0c10 0 18 7 20 17l0 0c6 36 19 71 40 101l0 0c5 7 13 10 22 8l0 0c11-3 23-5 35-5l0 0c55 0 106 32 131 81l11 23 0 0c3 5 0 11-5 13-1 1-3 2-5 2l0 0c-46-4-91 6-132 27l0 0c-41 20-76 51-100 89l0 0c-3 5-10 7-15 4-1-1-3-3-4-4l-11-23 0 0c-23-46-20-100 6-143l0 0c5-7 5-16 0-23-5-6-9-12-13-19l0 0c-2-3-5-5-9-5l0 0c-3 0-6 2-8 5l0 0c-35 51-95 80-157 75l0 0c-12 0-20-10-19-22l0 0c6-76 61-140 136-156z" horiz-adv-x="1000" />

<glyph glyph-name="conversation-chat-1-alternate" unicode="&#xe869;" d="M333 317h-20l0 0c-11 0-22-5-30-13l-95-95v66 0c0 23-19 42-42 42h-52 0c-6 0-11 4-11 10 0 0 0 0 0 0v396l0 0c0 6 5 10 11 10h666l0 0c6 0 11-4 11-10v-177l0 0c0-23 19-42 42-42 23 0 41 19 41 42v187 0c0 46-37 84-83 84h-688l0 0c-46 0-83-38-83-84 0 0 0 0 0 0v-416l0 0c0-47 37-84 83-84h21v-125l0 0c0-23 19-41 42-41 11 0 22 4 29 12l155 154h3l0 0c23 0 42 19 42 42 0 23-19 42-42 42z m584 125h-417l0 0c-46 0-83-38-83-84 0 0 0 0 0 0v-250l0 0c0-46 37-83 83-83h172l141-126 0 0c25-23 65-20 88 5 10 12 16 27 16 42v79l0 0c46 0 83 37 83 83v250l0 0c0 46-37 84-83 84 0 0 0 0 0 0z m-84-449l-118 105 0 0c-7 6-17 10-27 10h-178 0c-5 0-10 5-10 11 0 0 0 0 0 0v229l0 0c0 6 5 10 10 10h396 0c6 0 11-4 11-10v-229 0c0-6-5-11-11-11h-31 0c-23 0-42-18-42-41 0 0 0 0 0 0z" horiz-adv-x="1000" />

<glyph glyph-name="single-neutral-circle" unicode="&#xe86a;" d="M500 850l0 0c-276 0-500-224-500-500 0-276 224-500 500-500 276 0 500 224 500 500l0 0c0 276-224 500-500 500z m312-760l0 0c-143-172-399-196-572-52-19 16-36 33-52 52l0 0c-2 2-3 6-2 9l0 0c0 3 2 5 5 7l0 0c55 27 111 50 168 69l28 11 0 0c11 6 19 17 20 30l0 0c7 25 3 51-10 73-35 38-69 86-69 205l0 0c-8 92 60 174 153 182 6 1 13 1 19 1l0 0c93 3 170-71 173-164 0-6 0-13-1-19 0-119-34-167-69-205l0 0c-13-22-17-48-10-73l0 0c1-13 9-24 20-30l28-11 0 0c57-19 114-42 168-69l0 0c3-2 5-4 5-7l0 0c1-3 0-6-2-9z" horiz-adv-x="1000" />

<glyph glyph-name="pin" unicode="&#xe86b;" d="M500 850l0 0c-184 0-333-149-333-333 0-147 208-501 298-647l0 0c7-13 21-20 35-20l0 0c15 0 28 7 36 20 89 146 297 500 297 647l0 0c0 184-149 333-333 333z m0-479l0 0c-80 0-146 65-146 146 0 80 66 146 146 146 81 0 146-66 146-146l0 0c0-81-65-146-146-146z" horiz-adv-x="1000" />

<glyph glyph-name="add" unicode="&#xe86c;" d="M0 350l0 0c0-34 28-62 63-62h364 0c6 0 11-5 11-11v-365l0 0c0-34 28-62 62-62 35 0 63 28 63 62v365l0 0c0 6 4 11 10 11h365l0 0c34 0 62 28 62 62 0 35-28 63-62 63h-365 0c-6 0-10 4-10 10 0 0 0 0 0 0v365 0c0 34-28 62-63 62-34 0-62-28-62-62v-365 0c0-6-5-10-11-10h-364l0 0c-35 0-63-28-63-63 0 0 0 0 0 0z" horiz-adv-x="1000" />

<glyph glyph-name="alert-diamond" unicode="&#xe86d;" d="M958 409l-399 399 0 0c-33 33-85 33-118 0l-399-399 0 0c-33-33-33-85 0-118h0l399-399 0 0c33-33 85-33 118 0l399 399 0 0c33 33 33 85 0 118 0 0 0 0 0 0z m-497 174l0 0c0 23 19 41 42 41 23 0 42-18 42-41 0 0 0 0 0 0v-250 0c0-23-19-42-42-42-23 0-42 19-42 42z m44-480h-1l0 0c-34 0-62 27-64 61l0 0c-1 34 26 63 60 64 0 0 0 0 1 0h1l0 0c34 0 62-27 63-61l0 0c2-34-25-63-59-64 0 0-1 0-1 0z" horiz-adv-x="1000" />

<glyph glyph-name="arrow-left-1" unicode="&#xe86e;" d="M188 350l0 0c0 28 11 54 32 72l465 409 0 0c32 27 81 23 108-10 27-31 24-78-7-106l-406-357 0 0c-4-4-5-10-1-15 0 0 1 0 1-1l406-357 0 0c33-28 37-76 10-109-27-32-76-37-109-9-1 1-1 1-2 2l-465 409 0 0c-21 18-32 44-32 72z" horiz-adv-x="1000" />

<glyph glyph-name="award-badge" unicode="&#xe86f;" d="M507 451l0 0c-4 3-9 3-12 0l-299-229 0 0c-5-4-8-10-8-16v-78l0 0c0-11 9-20 20-20 5 0 9 1 13 4l235 180 0 0c26 20 63 20 89 0l234-180 0 0c9-7 22-5 29 4 3 4 4 8 4 13v76l0 0c0 7-3 13-8 17z m0-208l0 0c-4 3-9 3-12 0l-299-229 0 0c-5-4-8-10-8-17v-84l0 0c0-24 13-46 35-57l0 0c21-10 46-8 65 7l213 163 211-163 0 0c27-21 66-16 87 12 9 11 13 24 13 38v84l0 0c0 7-3 13-8 17z m-51 466l0 0c27 20 63 20 89 0l234-180 0 0c9-7 22-5 29 4 3 3 5 8 5 12v221 0c0 46-38 84-84 84h-458l0 0c-46 0-83-38-83-84 0 0 0 0 0 0v-221l0 0c0-11 9-20 20-20 5 0 9 1 13 4z m0-208l0 0c27 20 63 20 89 0l234-180 0 0c9-7 22-6 29 3 3 4 5 9 5 13v77 0c0 6-4 12-9 16l-297 230 0 0c-4 2-9 2-12 0l-299-229 0 0c-5-4-8-11-8-17v-77l0 0c0-12 9-21 20-21 5 0 9 1 13 4z" horiz-adv-x="1000" />

<glyph glyph-name="award-medal" unicode="&#xe870;" d="M976 835l0 0c-4 6-10 10-18 10h-208l0 0c-8 0-15-5-19-12l-120-252 0 0c-2-6 0-12 5-14 0 0 1-1 1-1l0 0c66-20 126-58 173-108l0 0c4-5 10-5 14-1 1 1 2 2 3 3l170 355 0 0c3 6 3 14-1 20z m-593-269l0 0c3 1 5 3 6 6l0 0c1 3 1 6 0 9l-120 252 0 0c-4 7-11 12-19 12h-208l0 0c-12 0-21-9-21-21 0-3 1-6 2-9l170-355 0 0c3-5 9-7 14-5 1 1 2 2 3 3l0 0c47 50 107 88 173 108z m117-44l0 0c-184 0-333-149-333-333 0-185 149-334 333-334 184 0 333 149 333 334l0 0c0 184-149 333-333 333z m155-302l-65-64 0 0c-3-3-4-8-2-12l36-82 0 0c5-11-1-24-11-28-6-3-13-2-19 1l-89 50 0 0c-3 2-7 2-10 0l-89-50 0 0c-10-6-23-2-29 8-3 6-3 13-1 19l36 82 0 0c2 4 1 9-2 12l-65 64 0 0c-8 7-9 20-2 28 4 4 10 6 16 6h74l0 0c4 0 8 3 9 6l39 84 0 0c5 10 18 14 29 9 4-2 7-5 9-9l39-84 0 0c1-3 5-6 9-6h74l0 0c11 1 20-8 21-19 0-6-2-11-7-15z" horiz-adv-x="1000" />

<glyph glyph-name="alert-circle" unicode="&#xe871;" d="M499 850l0 0c-133-2-261-57-354-152l0 0c-95-94-147-223-145-357l0 0c0-271 219-491 490-491 1 0 1 0 2 0h9l0 0c278 3 501 230 499 509v0l0 0c1 271-218 491-489 491-4 0-8 0-12 0z m-61-689l0 0c-2 34 25 62 59 64 0 0 1 0 1 0h1l0 0c34-1 62-28 64-62l0 0c1-34-26-62-60-63 0 0 0 0-1 0h-1l0 0c-34 0-62 27-63 61z m20 168v250l0 0c0 23 19 42 42 42 23 0 42-19 42-42 0 0 0 0 0 0v-250 0c0-23-19-41-42-41-23 0-42 18-42 41z" horiz-adv-x="1000" />

<glyph glyph-name="arrow-left" unicode="&#xe872;" d="M940 410h-713l0 0c-6 0-11 5-11 11 0 3 2 5 4 7l360 317 0 0c24 23 25 61 2 85-22 23-57 25-82 5l-465-410 0 0c-42-36-46-100-9-141 2-3 5-6 9-9l465-410 0 0c26-21 64-17 85 9 19 24 17 60-5 81l-360 317 0 0c-5 4-5 10-1 15 2 2 5 3 8 3h713l0 0c33 1 59 29 58 62-1 32-27 57-58 58z" horiz-adv-x="1000" />

<glyph glyph-name="attachment" unicode="&#xe873;" d="M910 706l0 0c-113 113-297 113-410 0 0 0 0 0 0 0l-432-432 0 0c-84-84-83-219 1-303 83-82 217-82 301 0l351 352 0 0c55 51 59 138 7 194-51 55-138 59-194 7-2-2-5-5-7-7l-216-216 0 0c-17-17-17-43 0-59 16-17 42-17 59 0l216 216 0 0c21 21 56 20 76-2 20-21 20-53 0-74l-351-352 0 0c-51-51-134-51-185 0-50 51-50 134 0 185l433 432 0 0c81 81 212 81 292 0 81-81 81-211 0-292l-324-325 0 0c-17-16-17-42-1-59 16-16 42-17 59-1 0 1 1 1 1 1l324 325 0 0c113 113 114 297 0 410 0 0 0 0 0 0z" horiz-adv-x="1000" />

<glyph glyph-name="award-badge-star-1" unicode="&#xe874;" d="M740 34l-55 97 46 82 0 0c13 22 5 51-18 63-7 4-15 6-23 6h-90l-54 96 121 121 0 0c25 27 40 63 41 100v167 0c0 46-37 83-83 83h-250 0c-46 0-83-37-83-83 0 0 0 0 0 0v-167l0 0c1-37 16-73 41-100l121-121-54-96h-108l0 0c-19 2-36-12-38-31 0-8 2-16 6-22l55-98-46-81 0 0c-13-23-5-51 18-64 7-4 15-6 23-6h90l59-105 0 0c13-23 42-31 64-18 8 4 14 10 18 18l59 105h108l0 0c19-1 36 13 38 32 0 8-2 15-6 22z m-365 565v156l0 0c0 6 5 11 10 11h105 0c5 0 10-5 10-11v-280l0 0c0-6-5-10-10-10-3 0-6 1-8 3l-90 89 0 0c-9 12-16 27-17 42z" horiz-adv-x="1000" />

<glyph glyph-name="award-ribbon-star-3" unicode="&#xe875;" d="M500 79l0 0c-60 0-119 13-173 38l0 0c-5 3-11 0-13-5-1-1-1-3-1-4v-216l0 0c0-23 18-42 41-42 11 0 22 4 30 12l116 117 116-117 0 0c17-16 43-16 59 0 8 8 13 19 13 30v216l0 0c0 5-5 10-11 10-1 0-3 0-4-1l0 0c-54-25-113-38-173-38z m0 771l0 0c-196 0-354-159-354-354 0-196 158-354 354-354 196 0 354 158 354 354l0 0c0 195-158 354-354 354z m0-146l0 0c115 0 208-93 208-208 0-115-93-208-208-208-115 0-208 93-208 208l0 0c0 115 93 208 208 208z m-78-233l-27-63 0 0c-5-10-2-22 6-30l0 0c9-8 22-9 32-4l67 38 68-38 0 0c10-5 23-4 31 4l0 0c9 8 11 20 7 30l-27 63 49 48 0 0c8 7 10 19 6 29l0 0c-4 10-14 16-24 16h-56l-30 63 0 0c-4 9-14 15-24 15v0l0 0c-10 0-19-6-24-15v0l-29-63h-56l0 0c-14 0-26-11-26-25-1-8 2-15 8-20z" horiz-adv-x="1000" />

<glyph glyph-name="alarm-bell" unicode="&#xe876;" d="M875 121h0c-34 0-62 28-62 62 0 0 0 0 0 0v203l0 0c5 163-110 306-271 336v86 0c0 23-19 42-42 42-23 0-42-19-42-42v-86l0 0c-160-30-275-173-270-336v-203 0c0-34-28-62-63-62h0c-23 0-42-19-42-42 0-23 19-41 42-41h750 0c23 0 42 18 42 41 0 23-19 42-42 42z m-282-146h-186l0 0c-5 0-10-4-10-9l0 0c-1-4-1-8-1-12l0 0c0-57 47-104 104-104 58 0 104 47 104 104l0 0c0 4 0 8 0 12l0 0c-1 5-5 9-11 9z" horiz-adv-x="1000" />

<glyph glyph-name="arrow-down-1" unicode="&#xe877;" d="M500 38l0 0c-28 0-54 11-72 32l-409 465 0 0c-27 32-23 81 10 108 31 27 78 24 106-7l357-406 0 0c4-4 11-5 15-1 0 0 1 1 1 1l357 406 0 0c28 33 76 37 109 10 32-27 37-76 9-109-1-1-1-1-2-2l-409-465 0 0c-18-21-44-32-72-32z" horiz-adv-x="1000" />

<glyph glyph-name="arrow-up-1" unicode="&#xe878;" d="M500 663l0 0c28 0 54-12 72-33l409-465 0 0c29-31 27-79-5-108-31-29-79-27-108 4-1 1-2 2-3 3l-357 406 0 0c-4 4-10 5-15 1 0 0 0-1-1-1l-357-406 0 0c-28-33-76-37-109-10-32 28-37 76-9 109 1 1 1 2 2 2l409 465 0 0c18 21 44 33 72 33z" horiz-adv-x="1000" />

<glyph glyph-name="award-badge-star" unicode="&#xe879;" d="M125-4h750 0c35 0 63 28 63 62v522l0 0c0 31-18 60-45 74l-354 187 0 0c-24 12-53 12-78 0l-354-187 0 0c-27-14-45-43-44-74v-522l0 0c0-34 28-62 62-62 0 0 0 0 0 0z m548 199l0 0c4-9 0-20-9-24-5-2-10-1-15 1l-139 78 0 0c-6 4-14 4-20 0l-139-78 0 0c-8-5-19-2-24 7-2 5-3 11 0 16 18 42 44 102 56 129l0 0c4 8 1 18-5 24l-97 86 0 0c-7 6-7 18-1 25 3 3 8 6 13 6h114l0 0c9 0 16 5 20 12l57 133 0 0c4 9 14 13 23 9 4-1 7-5 9-9l58-133 0 0c3-7 10-12 19-12h114l0 0c10 0 18-8 18-18 0-5-3-10-6-13l-97-86 0 0c-6-6-9-16-5-24z m223-262h-792 0c-23 0-41-18-41-41 0-23 18-42 41-42h792 0c23 0 42 19 42 42 0 23-19 41-42 41z" horiz-adv-x="1000" />

<glyph glyph-name="award-ribbon-star-1" unicode="&#xe87a;" d="M144 220l0 0c-2 3-5 5-9 5l0 0c-4 0-7-2-9-5l-100-173 0 0c-11-20-4-45 16-57 8-5 18-6 27-5l100 17 35-95 0 0c8-22 31-33 53-25 9 3 17 10 22 18l82 139 0 0c3 5 1 11-4 14 0 1-1 1-2 1l0 0c-86 31-160 90-211 166z m830-173l-101 174 0 0c-3 5-9 7-14 4-1-1-3-2-4-4l0 0c-50-76-124-135-211-166l0 0c-3-1-5-4-6-7l0 0c-1-2-1-6 1-8l82-140 0 0c12-20 38-26 57-15 9 5 15 13 18 22l35 95 100-17 0 0c22-3 44 12 48 35 1 9 0 19-5 27z m-110 409v0c0 201-163 365-365 365-201 0-364-164-364-365 0-201 163-364 364-364l0 0c202 0 365 163 365 364z m-219-143l0 0c5-12-1-27-14-32-7-3-15-2-21 1l-105 60 0 0c-4 1-8 1-11 0l-105-60 0 0c-12-6-27-2-34 10-3 7-4 14-1 21l43 99 0 0c1 4 0 8-3 11l-77 76 0 0c-9 9-10 24-2 33 5 5 12 8 18 8h89l0 0c4 0 7 2 9 6l46 94 0 0c6 13 21 18 33 11 5-2 9-6 11-11l47-94 0 0c1-4 5-6 9-6h88l0 0c13 1 24-9 24-22 1-7-2-14-7-19l-78-76 0 0c-3-3-4-7-2-11z" horiz-adv-x="1000" />

<glyph glyph-name="add-circle-bold" unicode="&#xe87b;" d="M21 350l0 0c0-265 214-479 479-479 265 0 479 214 479 479 0 265-214 479-479 479l0 0c-264 0-479-214-479-479z m208 21l0 0c0 23 19 42 42 42h156 0c6 0 11 4 11 10v156l0 0c0 23 18 42 41 42h42 0c23 0 42-19 42-42v-156l0 0c0-6 4-10 10-10h156l0 0c23 0 42-19 42-42v-42 0c0-23-19-41-42-41h-156 0c-6 0-10-5-10-11 0 0 0 0 0 0v-156 0c0-23-19-42-42-42h-42 0c-23 0-41 19-41 42 0 0 0 0 0 0v156 0c0 6-5 11-11 11h-156l0 0c-23 0-42 18-42 41 0 0 0 0 0 0z" horiz-adv-x="1000" />

<glyph glyph-name="arrow-down" unicode="&#xe87c;" d="M971 423l0 0c-25 22-62 19-84-5l-310-353 0 0c-4-4-10-4-15 0-2 2-3 4-3 7v719 0c0 33-26 59-59 59-32 0-59-26-59-59v-719l0 0c0-5-5-10-10-10-3 0-6 1-8 3l-310 353 0 0c-21 25-58 29-83 8-25-20-29-57-9-83 1-1 2-2 3-3l402-457 0 0c36-40 98-44 139-9 3 3 6 6 9 9l402 457 0 0c21 25 19 62-5 83 0 0 0 0 0 0z" horiz-adv-x="1000" />

<glyph glyph-name="arrow-up" unicode="&#xe87d;" d="M976 360l-402 457 0 0c-20 20-46 32-74 33l0 0c-28-1-54-13-74-33l-402-457 0 0c-22-24-20-61 4-83 24-22 61-20 83 4 1 0 1 1 2 1l310 353 0 0c4 4 10 4 15 1 2-2 3-5 3-8v-719l0 0c0-33 27-59 59-59 33 0 59 26 59 59v719l0 0c0 6 5 10 10 10 3 0 6-1 8-3l311-353 0 0c21-25 58-28 83-7 24 22 27 59 6 83 0 1-1 1-1 2z" horiz-adv-x="1000" />

<glyph glyph-name="award-badge-3" unicode="&#xe87e;" d="M847 44l-318 188 0 0c-18 9-40 9-57 0l-319-188 0 0c-17-10-27-29-28-49v-83l0 0c-1-18 12-33 29-34 7-1 14 1 20 5l319 188 0 0c4 2 10 2 14 0l319-188 0 0c14-10 34-6 44 8 4 6 6 13 5 21v83l0 0c-1 20-11 38-28 49z m0 292l-318 187 0 0c-18 10-40 10-57 0l-319-187 0 0c-17-11-27-29-28-49v-84l0 0c-1-17 12-32 29-33 7-1 14 1 20 5l319 187 0 0c4 2 10 2 14 0l319-187 0 0c14-10 34-6 44 8 4 6 6 13 5 20v84l0 0c-1 20-11 38-28 49z m0 292l-318 187 0 0c-18 10-40 10-57 0l-319-187 0 0c-17-11-27-30-28-50v-83l0 0c-1-17 12-32 29-34 7 0 14 2 20 6l319 187 0 0c4 2 10 2 14 0l319-187 0 0c14-10 34-7 44 8 4 6 6 13 5 20v83l0 0c-1 20-11 39-28 50z" horiz-adv-x="1000" />

</font>
</defs>
</svg>
